<svg width="44" height="8" viewBox="0 0 44 8" fill="none" xmlns="http://www.w3.org/2000/svg">
<path d="M33.8092 5.63838C33.8092 6.59157 33.1693 7.32389 32.1614 7.51477C31.6102 7.61933 31.0607 7.61325 30.5245 7.43371C29.6106 7.12774 29.2795 6.31964 29.3691 5.48843C29.4834 4.43474 30.3859 3.8698 31.3144 3.79766C31.6833 3.76854 32.0546 3.79352 32.4163 3.87183C33.3395 4.07608 33.8096 4.69898 33.8092 5.63838ZM32.967 5.6862C32.9618 4.79462 32.4402 4.27182 31.5608 4.27466C30.7547 4.2775 30.1906 4.85865 30.195 5.68175C30.1999 6.56887 30.7089 7.09653 31.5563 7.09248C32.4037 7.08843 32.9715 6.52308 32.967 5.6862Z" fill="#005A83"/>
<path d="M39.7431 7.63213C39.5202 7.63213 39.2933 7.65847 39.0753 7.62646C38.6112 7.55878 38.1954 7.3683 37.8692 7.0218C37.5429 6.6753 37.2264 6.3296 36.9201 5.97054C36.7093 5.72292 36.7579 5.62728 37.0599 5.51745C37.2688 5.44476 37.4649 5.33959 37.641 5.2058C37.9438 4.96507 37.8716 4.59223 37.5142 4.43579C37.2811 4.33407 36.7316 4.29355 36.4463 4.36204V7.50488H35.6824V3.79102C36.3948 3.83154 37.1008 3.83924 37.7999 3.92516C38.221 3.97703 38.5699 4.20885 38.6509 4.69517C38.6728 4.81521 38.663 4.9389 38.6224 5.05398C38.5818 5.16906 38.5119 5.27154 38.4195 5.35129C38.2169 5.53528 37.9871 5.68523 37.7504 5.86395C38.3109 6.53062 38.8645 7.23416 39.7671 7.5377C39.7569 7.56931 39.7504 7.60052 39.7431 7.63213Z" fill="#005A83"/>
<path d="M11.4743 4.2852V7.50625H10.7103V3.79077C11.4252 3.8313 12.1288 3.86494 12.8311 3.92046C12.9778 3.93221 13.1273 4.01286 13.2586 4.09026C13.745 4.37638 13.8333 4.95875 13.4366 5.35996C13.2526 5.54679 13.0135 5.68337 12.7602 5.871C13.0224 6.15469 13.2911 6.46229 13.576 6.75205C13.8848 7.06614 14.2244 7.34172 14.6548 7.48153C14.6953 7.4945 14.7241 7.54678 14.7581 7.58123C14.7135 7.60109 14.6698 7.63553 14.624 7.63918C13.9723 7.68903 13.3895 7.5176 12.9243 7.04952C12.577 6.7014 12.2528 6.32977 11.9314 5.9553C11.7429 5.73727 11.8009 5.6169 12.0631 5.52004C12.2747 5.44142 12.4899 5.34335 12.6649 5.20515C12.9709 4.96199 12.9081 4.55997 12.5365 4.4469C12.2094 4.34842 11.8556 4.3395 11.4743 4.2852Z" fill="#005A83"/>
<path d="M25.65 4.33469V7.50793H24.8767V3.82973C25.3549 3.82973 25.8311 3.82081 26.3069 3.83338C26.5424 3.8368 26.7769 3.86547 27.0064 3.91889C27.3675 4.00764 27.6953 4.16205 27.8169 4.56245C27.8903 4.80318 27.8688 5.03418 27.7148 5.23317C27.3367 5.71949 26.8309 5.94644 26.2173 5.91118C26.1403 5.90672 26.0686 5.80864 25.9944 5.75393C26.0589 5.68099 26.1099 5.58413 26.1902 5.53914C26.3989 5.42121 26.6412 5.35475 26.8317 5.21493C27.1462 4.98595 27.0874 4.60055 26.7296 4.44492C26.3932 4.2966 26.0346 4.33104 25.65 4.33469Z" fill="#005A83"/>
<path d="M6.50157 4.29885V5.39956H8.14614V5.83846H6.50522V7.03764H8.2272V7.50411H5.72144V3.84131H8.23166V4.29885H6.50157Z" fill="#005A83"/>
<path d="M3.39162 3.87302C3.36649 4.07565 3.34501 4.24829 3.3211 4.44039C3.08969 4.40513 2.8672 4.34677 2.64431 4.34313C2.35089 4.33867 2.04573 4.3334 1.76569 4.40635C1.08646 4.58345 0.773595 5.14798 0.858701 5.95244C0.918275 6.51657 1.41027 6.93724 2.04654 6.99438C2.49214 7.0318 2.94074 6.98 3.36608 6.842C3.3904 7.02437 3.4131 7.19661 3.44146 7.40937C3.21897 7.45314 3.00013 7.51069 2.77764 7.53622C2.23904 7.59822 1.69841 7.60633 1.17846 7.43004C0.195686 7.0965 -0.0989433 6.30948 0.027905 5.45842C0.163669 4.54616 0.797912 3.96501 1.73813 3.83735C2.07004 3.79277 2.41006 3.79277 2.74643 3.79683C2.95231 3.79642 3.15818 3.84465 3.39162 3.87302Z" fill="#005A83"/>
<path d="M41.9356 4.35818H40.6278V3.83984H44V4.35088H42.6699V7.50467H41.9356V4.35818Z" fill="#005A83"/>
<path d="M17.6986 7.51051H16.9655V4.36321H15.6617V3.84204H19.0072V4.35024H17.6986V7.51051Z" fill="#005A83"/>
<path d="M21.7225 7.99491H21.2856C21.2257 6.51812 21.1653 5.04146 21.1045 3.56494H21.9114C21.8494 5.03282 21.7874 6.50353 21.7225 7.99491Z" fill="#005A83"/>
<path d="M21.4616 3.11522C21.3611 3.07105 21.2614 3.0443 21.1816 2.98959C20.4915 2.51651 19.8035 2.04086 19.1175 1.56265C19.0876 1.54728 19.061 1.52606 19.0393 1.50023C19.0108 1.44579 18.9858 1.38962 18.9644 1.33205C19.0361 1.32111 19.1151 1.28625 19.1775 1.3053C19.2784 1.3361 19.3668 1.40581 19.4632 1.45403C20.0598 1.7519 20.6588 2.0441 21.2525 2.34562C21.331 2.39062 21.4199 2.4143 21.5104 2.4143C21.6009 2.4143 21.6899 2.39062 21.7684 2.34562C22.4926 1.97561 23.2221 1.60966 23.9536 1.25383C24.0525 1.20601 24.1842 1.22627 24.3009 1.21533C24.2304 1.3053 24.1773 1.42161 24.0869 1.48119C23.31 1.99304 22.5271 2.49435 21.7429 2.99729C21.6614 3.04957 21.5605 3.07469 21.4616 3.11522Z" fill="#FDB61B"/>
<path d="M21.937 1.4329C21.937 1.54851 21.8922 1.65963 21.8119 1.7428C21.7316 1.82597 21.6221 1.8747 21.5066 1.87869C21.3878 1.87479 21.2751 1.82558 21.1915 1.74117C21.108 1.65676 21.0599 1.54355 21.0571 1.42479C21.0579 1.36584 21.0704 1.30763 21.094 1.25359C21.1176 1.19954 21.1518 1.15076 21.1945 1.1101C21.2372 1.06944 21.2875 1.03772 21.3427 1.01681C21.3978 0.995895 21.4566 0.98621 21.5155 0.988321C21.6301 0.991925 21.7388 1.04065 21.8177 1.12391C21.8966 1.20716 21.9395 1.31821 21.937 1.4329V1.4329Z" fill="#005A83"/>
</svg>
