<svg width="44" height="23" viewBox="0 0 44 23" fill="none" xmlns="http://www.w3.org/2000/svg">
<g clip-path="url(#clip0_535_102)">
<path d="M35.1194 22.7318C35.0967 22.7242 35.0739 22.7166 35.0588 22.7091C35.036 22.7015 35.0133 22.6939 34.9982 22.6863C34.983 22.6787 34.9754 22.6712 34.9603 22.6712C34.8542 22.6636 34.7633 22.6181 34.6648 22.5802C34.5208 22.5348 34.3844 22.4666 34.248 22.406C34.051 22.315 33.8616 22.1938 33.6797 22.065C33.46 21.9059 33.2554 21.724 33.0811 21.5194C33.0053 21.4361 32.9371 21.3451 32.8689 21.2542C32.778 21.1406 32.7022 21.0193 32.6265 20.8905C32.5128 20.7011 32.4219 20.4965 32.3461 20.2919C32.3082 20.1934 32.2703 20.0949 32.2552 19.9964C32.2173 19.9282 32.2249 19.8448 32.1945 19.7766C32.187 19.7615 32.187 19.7387 32.187 19.7236C32.187 19.6781 32.1794 19.6327 32.1642 19.5948C32.1567 19.572 32.1567 19.5417 32.1491 19.5114C32.1491 19.4508 32.1415 19.3826 32.1264 19.322C32.1188 19.2917 32.1188 19.2538 32.1188 19.2159C32.1188 19.0189 32.1188 18.8219 32.1188 18.6249C32.1188 18.6097 32.1188 18.5946 32.1188 18.5794C32.1415 18.4809 32.1567 18.3824 32.1567 18.2763C32.2021 18.193 32.1718 18.0945 32.2173 18.0111C32.2173 17.9353 32.2476 17.8596 32.2703 17.7914C32.3006 17.6777 32.3461 17.5716 32.384 17.458C32.5052 17.1473 32.6643 16.8518 32.8689 16.579C33.0659 16.3138 33.2933 16.0865 33.5433 15.8819C33.6797 15.7758 33.8161 15.6773 33.9601 15.5939C34.0737 15.5257 34.2404 15.4348 34.3768 15.3742C34.5056 15.3136 34.642 15.2681 34.786 15.2151C34.8466 15.1923 34.9148 15.1848 34.9754 15.162C35.0512 15.1317 35.1346 15.1393 35.2103 15.1014C35.2255 15.0938 35.2406 15.0938 35.2558 15.0938C35.3088 15.0938 35.3543 15.0863 35.4073 15.0635C35.4301 15.0484 35.4604 15.056 35.4907 15.056C35.5589 15.056 35.6271 15.056 35.6953 15.0256C35.718 15.0181 35.7483 15.0181 35.7786 15.0181C35.9832 15.0181 36.1954 15.0181 36.4 15.0181C36.4454 15.0181 36.4909 15.0256 36.5288 15.0408C36.5742 15.056 36.6197 15.056 36.6728 15.056C36.7258 15.056 36.7713 15.056 36.8243 15.0787C36.847 15.0863 36.8773 15.0863 36.9001 15.0863C36.938 15.0863 36.9834 15.0863 37.0213 15.109C37.0289 15.1166 37.044 15.1166 37.0592 15.1166C37.135 15.109 37.2032 15.1545 37.2714 15.162C37.3547 15.1772 37.4305 15.2075 37.5063 15.2378C37.6275 15.2833 37.7412 15.3212 37.8548 15.3742C37.9988 15.4424 38.1428 15.5182 38.2791 15.6015C38.5671 15.7834 38.8247 15.9955 39.0596 16.238C39.2187 16.4047 39.3551 16.5942 39.4839 16.7836C39.6052 16.973 39.7113 17.1776 39.7946 17.3898C39.8628 17.5413 39.9158 17.7004 39.9537 17.8671C39.9689 17.9505 39.9916 18.0263 40.0144 18.1096C40.0219 18.1324 40.0219 18.1551 40.0219 18.1778C40.0219 18.2005 40.0219 18.2309 40.0295 18.2536C40.0522 18.3142 40.0522 18.3824 40.0598 18.4506C40.0674 18.5112 40.075 18.5794 40.0826 18.64C40.0977 18.8219 40.1053 19.0037 40.0826 19.1856C40.075 19.2614 40.0598 19.3447 40.0598 19.4205C40.0598 19.466 40.0598 19.5114 40.0371 19.5493C40.0295 19.5645 40.0295 19.572 40.0295 19.5872C40.0295 19.6781 39.9992 19.7539 39.984 19.8372C39.9765 19.8979 39.9537 19.9585 39.9386 20.0115C39.9007 20.1328 39.8628 20.254 39.8173 20.3677C39.7188 20.6404 39.5218 20.9814 39.3779 21.186C39.2036 21.4361 38.999 21.6482 38.7717 21.8528C38.6353 21.9741 38.4837 22.0801 38.3322 22.1786C38.1428 22.2999 37.9457 22.406 37.7412 22.4893C37.6578 22.5272 37.5745 22.5575 37.4835 22.5878C37.4305 22.603 37.3774 22.6257 37.3244 22.6484C37.3092 22.656 37.2941 22.656 37.2789 22.656C37.2486 22.656 37.2183 22.6636 37.188 22.6787C37.1729 22.6863 37.1425 22.6863 37.1274 22.6939C37.1122 22.7015 37.0971 22.7091 37.0819 22.7091C36.4151 22.7318 35.7635 22.7318 35.1194 22.7318ZM38.0594 18.9204C38.0594 18.837 38.0594 18.7461 38.0594 18.6628C38.0594 18.64 38.0594 18.6097 38.0518 18.587C38.0215 18.5112 38.0215 18.4279 37.9912 18.3445C37.9609 18.2687 37.9457 18.1854 37.9079 18.1096C37.8094 17.8747 37.673 17.6701 37.4911 17.4883C37.3623 17.3519 37.2107 17.2458 37.044 17.1549C36.9834 17.117 36.9152 17.0943 36.847 17.0639C36.7713 17.0261 36.6879 17.0033 36.6046 16.9806C36.4985 16.9503 36.3924 16.9276 36.2787 16.92C36.1499 16.9124 36.0211 16.9124 35.8847 16.92C35.7862 16.92 35.6877 16.9503 35.5892 16.9654C35.5362 16.973 35.4907 16.9882 35.4452 17.0033C35.3467 17.0412 35.2482 17.0791 35.1497 17.1321C34.9982 17.2079 34.8693 17.2988 34.7405 17.4049C34.5663 17.5565 34.4299 17.7459 34.3162 17.9505C34.2556 18.0566 34.2101 18.1702 34.1722 18.2915C34.1571 18.3445 34.1495 18.4051 34.1268 18.4582C34.1116 18.5112 34.104 18.5718 34.0965 18.6249C34.0661 18.8219 34.0661 19.0113 34.0965 19.2008C34.0889 19.2917 34.1268 19.375 34.1419 19.4584C34.1647 19.5569 34.2025 19.6478 34.248 19.7387C34.3238 19.913 34.4223 20.0721 34.5511 20.2237C34.6496 20.3374 34.7557 20.4359 34.8769 20.5268C35.0588 20.6556 35.2482 20.7617 35.468 20.8223C35.5134 20.8375 35.5665 20.845 35.6119 20.8602C35.6801 20.8905 35.7407 20.8829 35.8089 20.8905C35.8468 20.8905 35.8847 20.8981 35.9226 20.9057C36.0211 20.9284 36.112 20.9284 36.203 20.9057C36.2333 20.8981 36.2636 20.8905 36.2939 20.8981C36.4 20.9057 36.4909 20.8678 36.5894 20.8526C36.6728 20.8375 36.7485 20.7996 36.8319 20.7693C36.9986 20.7011 37.1425 20.6101 37.2865 20.5041C37.4305 20.398 37.5517 20.2692 37.6578 20.1252C37.8245 19.8903 37.9533 19.6327 37.9988 19.3371C37.9988 19.322 38.0064 19.3068 38.0139 19.2917C38.0215 19.2538 38.0291 19.2159 38.0367 19.178C38.0594 19.0947 38.0594 19.0113 38.0594 18.9204Z" fill="#0B9ED9"/>
<path d="M17.8431 22.7318C17.8052 22.7091 17.7673 22.7167 17.7294 22.7091C17.6916 22.7091 17.6537 22.7015 17.6158 22.6864C17.5855 22.6712 17.5476 22.6712 17.5097 22.6712C17.4642 22.6712 17.4264 22.6636 17.3809 22.6485C17.343 22.6333 17.2975 22.6333 17.2521 22.6257C17.2521 22.603 17.2445 22.5879 17.2445 22.5651C17.2445 22.55 17.2445 22.5348 17.2445 22.5197C17.2445 22.0196 17.2445 21.5195 17.2445 21.0193C17.2445 20.989 17.2369 20.9512 17.2597 20.9133C17.29 20.9208 17.3278 20.936 17.3582 20.936C17.396 20.936 17.4264 20.9512 17.4567 20.9663C17.4718 20.9739 17.4946 20.9739 17.5097 20.9739C17.5324 20.9815 17.5552 20.989 17.5855 20.989C17.6082 20.9966 17.6309 21.0042 17.6613 21.0042C17.6916 21.0118 17.7219 21.0193 17.7522 21.0269C17.7749 21.0345 17.7976 21.0345 17.8204 21.0421C17.8583 21.0497 17.9037 21.0572 17.9416 21.0648C17.9492 21.0648 17.9568 21.0724 17.9568 21.0724C18.0553 21.0875 18.1614 21.1027 18.2599 21.1179C18.3811 21.1406 18.5099 21.1406 18.6312 21.1557C18.8509 21.1861 19.0782 21.1785 19.298 21.1785C19.3358 21.1785 19.3662 21.1709 19.404 21.1633C19.4268 21.1633 19.4571 21.1482 19.4798 21.1482C19.6238 21.1482 19.7602 21.1103 19.889 21.0724C20.0481 21.0269 20.1921 20.9512 20.3057 20.8223C20.3891 20.7238 20.4497 20.6178 20.4421 20.4814C20.4421 20.4586 20.4421 20.4359 20.4421 20.4132C20.4421 20.3298 20.4118 20.2616 20.3739 20.1934C20.3057 20.0722 20.1997 19.9813 20.086 19.9131C19.9799 19.8524 19.8663 19.7994 19.7526 19.7539C19.6617 19.716 19.5707 19.6857 19.4798 19.6554C19.3889 19.6251 19.2904 19.5948 19.1995 19.5645C19.0782 19.5266 18.9646 19.4812 18.8509 19.4433C18.7751 19.413 18.6918 19.3902 18.616 19.3523C18.4569 19.269 18.2977 19.1856 18.1462 19.0796C17.9492 18.9432 17.7749 18.784 17.6309 18.5946C17.5249 18.4582 17.4415 18.3142 17.3809 18.1551C17.3354 18.0339 17.2975 17.9051 17.2748 17.7687C17.2369 17.5944 17.2445 17.4201 17.2445 17.2458C17.2445 17.0791 17.2672 16.92 17.3051 16.7533C17.3733 16.4502 17.5173 16.1699 17.7067 15.9274C17.828 15.7683 17.9795 15.647 18.1386 15.5258C18.2599 15.4349 18.3887 15.3667 18.5175 15.2985C18.616 15.253 18.7221 15.2151 18.8282 15.1772C18.8888 15.1545 18.9494 15.1242 19.01 15.1166C19.0934 15.109 19.1691 15.0636 19.2525 15.0636C19.2676 15.0636 19.2828 15.0636 19.298 15.056C19.351 15.0257 19.4116 15.0333 19.4647 15.0257C19.5101 15.0257 19.5556 15.0181 19.6086 15.0029C19.6389 14.9954 19.6692 14.9878 19.6996 14.9878C19.9496 14.9878 20.1997 14.9878 20.4573 14.9878C20.4952 14.9878 20.5331 14.9954 20.5709 15.0029C20.6013 15.0105 20.6316 15.0181 20.6619 15.0181C20.7149 15.0181 20.768 15.0181 20.821 15.0257C20.8437 15.0257 20.874 15.0257 20.8968 15.0333C20.965 15.0636 21.0332 15.056 21.1014 15.0636C21.1923 15.0787 21.2908 15.0939 21.3817 15.109C21.4272 15.1166 21.4802 15.1318 21.5333 15.1393C21.6015 15.1469 21.6772 15.1696 21.7454 15.1848C21.7909 15.1924 21.8288 15.2075 21.8818 15.2227C21.8894 15.2378 21.8894 15.253 21.897 15.2757C21.897 15.2909 21.897 15.3136 21.897 15.3363C21.897 15.791 21.897 16.2381 21.897 16.6927C21.897 16.7306 21.9046 16.7609 21.8818 16.7988C21.8439 16.8064 21.8061 16.8064 21.7606 16.7912C21.7454 16.7836 21.7379 16.776 21.7227 16.776C21.6621 16.7685 21.6015 16.7533 21.5408 16.7382C21.4878 16.723 21.4348 16.7306 21.3817 16.7003C21.2756 16.7078 21.1771 16.6472 21.0711 16.6548C21.0559 16.6548 21.0332 16.6548 21.018 16.6472C20.9347 16.6169 20.8589 16.6245 20.7755 16.6169C20.6846 16.6093 20.6013 16.6018 20.5103 16.5942C20.3891 16.5866 20.2754 16.5866 20.1542 16.6093C20.1163 16.6169 20.0784 16.6169 20.0405 16.6169C20.0026 16.6245 19.9572 16.6321 19.9193 16.6397C19.8966 16.6472 19.8738 16.6472 19.8511 16.6548C19.6768 16.6927 19.5177 16.7533 19.3889 16.8745C19.3283 16.9276 19.2828 16.9958 19.2449 17.0716C19.2449 17.0791 19.2373 17.0867 19.2373 17.0867C19.2222 17.1852 19.2146 17.2761 19.2373 17.3747C19.2525 17.4353 19.2828 17.4959 19.3283 17.5489C19.404 17.6399 19.495 17.7081 19.5935 17.7611C19.6768 17.8066 19.7678 17.8369 19.8511 17.8748C19.942 17.9051 20.033 17.9278 20.1163 17.9657C20.1693 17.9884 20.23 17.996 20.2906 18.0187C20.3739 18.049 20.4573 18.0718 20.5406 18.1021C20.624 18.1324 20.7073 18.1627 20.7907 18.193C20.9271 18.2385 21.0559 18.2991 21.1847 18.3673C21.3135 18.4355 21.4348 18.5113 21.556 18.5946C21.6772 18.6855 21.7985 18.784 21.897 18.9053C22.0031 19.0341 22.1016 19.1629 22.1773 19.3069C22.2304 19.4054 22.2758 19.5115 22.3137 19.6175C22.3365 19.6782 22.3516 19.7464 22.3744 19.807C22.3819 19.8221 22.3819 19.8449 22.3819 19.86C22.3895 19.9131 22.3971 19.9585 22.4047 20.0116C22.4122 20.0495 22.4198 20.0873 22.4198 20.1252C22.4198 20.2389 22.4198 20.3525 22.4198 20.4662C22.4198 20.5268 22.4198 20.5799 22.3971 20.6329C22.3971 20.6405 22.3895 20.6481 22.3895 20.6632C22.3895 20.7541 22.3668 20.8451 22.344 20.936C22.3213 21.0193 22.2986 21.1103 22.2683 21.1936C22.1546 21.4967 21.9803 21.7619 21.7454 21.9892C21.5333 22.1938 21.2908 22.353 21.0256 22.4666C20.9271 22.5121 20.8286 22.55 20.7225 22.5879C20.677 22.603 20.6391 22.6106 20.5937 22.6257C20.5558 22.6409 20.5103 22.6409 20.48 22.6636C20.4194 22.6939 20.3588 22.6864 20.2982 22.7167C19.4874 22.7318 18.669 22.7318 17.8431 22.7318Z" fill="#0B9ED9"/>
<path d="M7.39379 22.7318C7.37863 22.7242 7.3559 22.7166 7.34074 22.7166C7.31043 22.7091 7.2877 22.7015 7.25739 22.6939C7.23466 22.6863 7.21193 22.6787 7.19677 22.6787C7.17404 22.6787 7.15131 22.6712 7.12858 22.656C7.08311 22.6333 7.0225 22.6409 6.97703 22.603C6.75729 22.5348 6.54512 22.4363 6.34054 22.3302C6.18141 22.2468 6.02987 22.1483 5.8859 22.0423C5.68889 21.8983 5.50703 21.7392 5.34033 21.5573C5.22667 21.4361 5.12816 21.3073 5.03723 21.1709C4.90842 20.9814 4.79476 20.7844 4.70383 20.5798C4.65079 20.4662 4.60533 20.3525 4.57502 20.2388C4.55986 20.1782 4.52955 20.1176 4.5144 20.0494C4.49924 19.9964 4.48409 19.9433 4.47651 19.8903C4.46136 19.8069 4.45378 19.7236 4.43105 19.6402C4.39316 19.4887 4.39316 19.3296 4.37801 19.178C4.36285 18.9886 4.35527 18.8067 4.38558 18.6173C4.38558 18.5946 4.39316 18.5643 4.39316 18.5415C4.39316 18.4127 4.41589 18.2839 4.43863 18.1551C4.45378 18.0717 4.46136 17.996 4.49167 17.9126C4.5144 17.852 4.52198 17.7838 4.54471 17.7232C4.56744 17.6398 4.59017 17.5641 4.62806 17.4807C4.68868 17.3367 4.7493 17.1928 4.81749 17.0564C4.97662 16.7609 5.16605 16.4881 5.39337 16.2456C5.5828 16.0486 5.78739 15.8667 6.00713 15.7152C6.12837 15.6318 6.26476 15.5636 6.39358 15.4879C6.49966 15.4272 6.61332 15.3818 6.72698 15.3363C6.87853 15.2681 7.03007 15.2302 7.18162 15.1772C7.24982 15.1545 7.32559 15.1469 7.40136 15.1317C7.41652 15.1317 7.43167 15.1317 7.43925 15.1241C7.48471 15.0938 7.53775 15.1014 7.5908 15.0938C7.60595 15.0938 7.62111 15.0938 7.63626 15.0863C7.69688 15.0484 7.76507 15.056 7.83327 15.056C7.87873 15.056 7.9242 15.056 7.96209 15.0332C7.98482 15.0256 8.01513 15.0181 8.03786 15.0181C8.28033 15.0181 8.51523 15.0181 8.75771 15.0181C8.78044 15.0181 8.79559 15.0181 8.81075 15.0256C8.8941 15.056 8.97745 15.056 9.06838 15.056C9.11384 15.056 9.16688 15.056 9.20477 15.0787C9.2275 15.0863 9.25023 15.0863 9.27296 15.0863C9.33358 15.0863 9.3942 15.0863 9.44724 15.1166C9.4624 15.1241 9.47755 15.1241 9.49271 15.1241C9.53817 15.1241 9.58364 15.1393 9.6291 15.1545C9.68972 15.1696 9.75034 15.1848 9.81095 15.1999C9.90946 15.2302 10.008 15.253 10.1065 15.2757C10.114 15.2984 10.114 15.3212 10.1216 15.3439C10.1216 15.359 10.1216 15.3818 10.1216 15.4045C10.1216 15.988 10.1216 16.579 10.1216 17.1625C10.1216 17.2003 10.1216 17.2306 10.1216 17.261C10.0913 17.2761 10.0686 17.261 10.0459 17.2534C9.93977 17.2003 9.82611 17.1549 9.72003 17.1094C9.58363 17.0564 9.44724 17.0185 9.30327 16.9806C9.21992 16.9579 9.13657 16.9503 9.05322 16.9351C9.03807 16.9351 9.02291 16.9351 9.00776 16.9276C8.87894 16.8972 8.74255 16.8972 8.60616 16.8972C8.53039 16.8972 8.45461 16.8972 8.37884 16.8972C8.30307 16.8972 8.23487 16.9048 8.1591 16.92C8.0909 16.9351 8.01513 16.9427 7.94693 16.9579C7.81812 16.9882 7.6893 17.0336 7.56806 17.0867C7.44683 17.1397 7.32559 17.2079 7.21951 17.2913C7.01492 17.4428 6.84822 17.6247 6.71183 17.8444C6.65878 17.9278 6.61332 18.0111 6.58301 18.102C6.54512 18.193 6.51481 18.2839 6.49208 18.3824C6.46935 18.4733 6.46177 18.5718 6.43904 18.6628C6.43146 18.6931 6.43146 18.7158 6.43146 18.7461C6.43146 18.8143 6.43146 18.8825 6.43146 18.9431C6.43146 19.1098 6.4542 19.2614 6.49208 19.4205C6.53755 19.6327 6.62847 19.8373 6.74213 20.0191C6.8861 20.254 7.08311 20.451 7.31801 20.6026C7.46198 20.6935 7.61353 20.7768 7.78023 20.8147C7.84085 20.8602 7.91662 20.845 7.97724 20.8753C7.99239 20.8829 8.0227 20.8829 8.04544 20.8829C8.06817 20.8829 8.0909 20.8829 8.11363 20.8905C8.16667 20.9132 8.21971 20.9208 8.27276 20.9208C8.47734 20.9208 8.68193 20.9208 8.88652 20.9208C8.93956 20.9208 8.9926 20.9208 9.04564 20.8905H9.05322C9.14415 20.8905 9.2275 20.8678 9.31085 20.845C9.34116 20.8375 9.37147 20.8299 9.40178 20.8223C9.45482 20.8071 9.50786 20.792 9.56848 20.7768C9.74276 20.7238 9.92462 20.6632 10.0837 20.5647C10.0989 20.5571 10.114 20.5647 10.1292 20.5571C10.1292 20.5798 10.1368 20.6026 10.1368 20.6253C10.1519 21.0042 10.1444 22.4363 10.1292 22.5272C10.0913 22.5499 10.0534 22.5727 10.008 22.5727C9.98523 22.5727 9.9625 22.5878 9.94735 22.5878C9.92461 22.5954 9.90188 22.603 9.88673 22.603C9.864 22.6106 9.84126 22.603 9.81853 22.6181C9.78822 22.6333 9.75034 22.6409 9.72003 22.6409C9.70487 22.6409 9.68972 22.6409 9.68214 22.6484C9.6291 22.6787 9.57606 22.6788 9.51544 22.6939C9.50786 22.6939 9.50786 22.7015 9.50028 22.7015C8.78044 22.7318 8.08332 22.7318 7.39379 22.7318Z" fill="#0B9ED9"/>
<path d="M27.3375 22.7318C27.3223 22.7242 27.3071 22.7166 27.292 22.7166C27.2617 22.7091 27.2314 22.7091 27.2011 22.6863C27.1859 22.6787 27.1708 22.6788 27.1556 22.6712C27.1177 22.6712 27.0874 22.656 27.0571 22.6409C27.0116 22.6181 26.9662 22.6257 26.9207 22.5954C26.7767 22.5575 26.6479 22.4969 26.5115 22.4439C26.216 22.315 25.9356 22.1408 25.6856 21.9362C25.5189 21.7998 25.3598 21.6482 25.2158 21.4815C25.0643 21.3073 24.9279 21.1102 24.8066 20.9132C24.7157 20.7617 24.6399 20.595 24.5793 20.4283C24.549 20.3374 24.5035 20.2464 24.4808 20.1555C24.4656 20.0873 24.4278 20.0267 24.4278 19.9509C24.4278 19.9358 24.4202 19.913 24.4126 19.8979C24.405 19.8751 24.3974 19.8524 24.3974 19.8221C24.3899 19.7842 24.3823 19.7463 24.3747 19.7084C24.3747 19.7009 24.3671 19.6933 24.3671 19.6933C24.352 19.5796 24.3368 19.4735 24.3217 19.3599C24.3141 19.2386 24.3065 19.1098 24.3065 18.9886C24.3065 18.8901 24.3065 18.7916 24.3141 18.6931C24.3141 18.6325 24.3141 18.5643 24.3217 18.5036C24.3293 18.4506 24.3368 18.4051 24.3444 18.3521C24.352 18.3142 24.3596 18.2839 24.3596 18.246C24.3596 18.2005 24.3671 18.1475 24.3823 18.1096C24.3899 18.0945 24.3899 18.0717 24.3899 18.0566C24.3899 18.0187 24.405 17.9732 24.4202 17.9353C24.4353 17.8823 24.4505 17.8293 24.4656 17.7686C24.4884 17.6701 24.5263 17.5716 24.5566 17.4807C24.6096 17.3292 24.6778 17.1852 24.7536 17.0412C24.8294 16.9048 24.9051 16.776 24.9961 16.6472C25.1552 16.4123 25.3522 16.2077 25.5644 16.0107C25.7235 15.8667 25.8978 15.7379 26.0796 15.6243C26.2236 15.5333 26.3676 15.4576 26.5191 15.3894C26.6479 15.3287 26.7767 15.2757 26.9131 15.2378C26.9813 15.2151 27.0419 15.1923 27.1101 15.1772C27.1859 15.1545 27.2617 15.1469 27.3299 15.1241C27.4056 15.1014 27.489 15.1014 27.5648 15.0787C27.633 15.0635 27.6936 15.056 27.7618 15.0484C27.8148 15.0484 27.8603 15.0484 27.9133 15.0256C27.9361 15.0181 27.9588 15.0181 27.9815 15.0181C28.2164 15.0181 28.4513 15.0181 28.6862 15.0181C28.7089 15.0181 28.7241 15.0181 28.7393 15.0256C28.8226 15.056 28.9135 15.056 29.0045 15.056C29.0499 15.056 29.0954 15.0635 29.1333 15.0787C29.1712 15.0938 29.2091 15.0938 29.2469 15.0938C29.2848 15.0938 29.3227 15.0938 29.3606 15.1166C29.3682 15.1241 29.3758 15.1241 29.3909 15.1241C29.4818 15.1166 29.5576 15.162 29.641 15.1696C29.694 15.1772 29.7546 15.1923 29.8077 15.2075C29.8834 15.2302 29.9668 15.253 30.0501 15.2833C30.0501 15.306 30.0577 15.3287 30.0577 15.3515C30.0577 15.4121 30.0577 15.4727 30.0577 15.5333C30.0577 16.0713 30.0577 16.6169 30.0577 17.1549C30.0577 17.1928 30.0653 17.2306 30.0501 17.2685C30.035 17.2685 30.0198 17.2685 30.0047 17.261C29.9137 17.2155 29.8152 17.17 29.7243 17.1321C29.6788 17.1094 29.6258 17.0943 29.5728 17.0791C29.5273 17.0639 29.4894 17.0336 29.4364 17.0336C29.3227 16.9882 29.2015 16.9654 29.0878 16.9503C28.959 16.9276 28.8302 16.9048 28.7014 16.9048C28.5574 16.9048 28.4134 16.9048 28.2695 16.9048C28.2164 16.9048 28.171 16.9124 28.1179 16.92C28.0346 16.9351 27.9588 16.9503 27.8754 16.9654C27.7694 16.9882 27.6784 17.0261 27.5799 17.0639C27.4814 17.1018 27.3829 17.1549 27.2844 17.2155C27.1632 17.2837 27.0571 17.367 26.9662 17.4655C26.8828 17.5489 26.7995 17.6322 26.7313 17.7383C26.6631 17.8444 26.5949 17.9505 26.5418 18.0642C26.5039 18.1627 26.4585 18.2536 26.4357 18.3597C26.413 18.443 26.3827 18.5264 26.3827 18.6173C26.3827 18.6628 26.3676 18.7082 26.3676 18.7461C26.3524 18.8825 26.3524 19.0189 26.3751 19.1553C26.3827 19.1856 26.3827 19.2159 26.3827 19.2538C26.3827 19.2917 26.3903 19.3371 26.4054 19.375C26.413 19.3826 26.413 19.3902 26.413 19.4053C26.4206 19.4963 26.4585 19.572 26.4888 19.6554C26.557 19.8524 26.6555 20.0267 26.7843 20.1934C26.9207 20.3677 27.0798 20.5116 27.2693 20.6253C27.4056 20.7086 27.5496 20.7844 27.7087 20.8299C27.7694 20.8678 27.8451 20.8602 27.9058 20.8905C27.9209 20.8981 27.9512 20.8981 27.9739 20.8981C28.0118 20.8981 28.0421 20.9057 28.0725 20.9208C28.0952 20.9284 28.1255 20.936 28.1558 20.936C28.3907 20.9435 28.618 20.9435 28.8529 20.936C28.9438 20.9284 29.0348 20.8905 29.1333 20.8905C29.1787 20.8602 29.2318 20.8678 29.2772 20.8526C29.3985 20.8223 29.5197 20.7844 29.641 20.739C29.7698 20.6935 29.8986 20.648 30.0122 20.5723C30.0198 20.5647 30.035 20.5723 30.0501 20.5723C30.0501 20.595 30.0577 20.6101 30.0577 20.6329C30.0577 21.2694 30.0577 21.9059 30.0577 22.5348C30.0198 22.5727 29.9819 22.5878 29.9365 22.5954C29.9213 22.5954 29.8986 22.603 29.8834 22.6106C29.8607 22.6181 29.838 22.6257 29.8077 22.6333C29.7774 22.6409 29.7546 22.6484 29.7243 22.656C29.7167 22.656 29.7092 22.6636 29.694 22.6636C29.6107 22.656 29.5349 22.7091 29.4515 22.7091C29.4364 22.7091 29.4288 22.7166 29.4136 22.7242C28.7317 22.7318 28.0346 22.7318 27.3375 22.7318Z" fill="#0B9ED9"/>
<path d="M33.0887 0C33.1796 0.0530413 33.263 0.11366 33.3312 0.189433C33.4069 0.272784 33.46 0.371289 33.513 0.477372C33.5433 0.537991 33.5433 0.606187 33.5736 0.666805C33.5812 0.689537 33.5812 0.719847 33.5812 0.742579C33.5812 0.803197 33.5812 0.871393 33.5812 0.932012C33.5812 4.213 33.5812 7.49398 33.5812 10.775C33.5812 10.8129 33.5812 10.8583 33.5812 10.8962C33.5812 10.9644 33.5888 11.0326 33.5509 11.0932C33.5357 11.1993 33.4903 11.2826 33.4372 11.366C33.3994 11.4266 33.3539 11.4872 33.3009 11.5403C33.172 11.6691 33.0129 11.76 32.8311 11.7979C32.7704 11.8131 32.7098 11.8131 32.6492 11.8131C32.5052 11.8206 32.3613 11.7979 32.2324 11.7373C32.0961 11.6691 31.9672 11.5782 31.8763 11.4493C31.8233 11.3736 31.7702 11.2978 31.7475 11.2145C31.7248 11.1463 31.6945 11.0705 31.6945 10.9947C31.6945 10.9189 31.6945 10.8507 31.6945 10.775C31.6945 7.49398 31.6945 4.213 31.6945 0.932012C31.6945 0.878971 31.6945 0.825929 31.6945 0.772888C31.6945 0.621341 31.7475 0.484949 31.8233 0.356135C31.8915 0.234897 31.9976 0.136392 32.1112 0.0606187C32.1339 0.045464 32.1491 0.0303093 32.1643 0.0151547C32.4825 0 32.7856 0 33.0887 0Z" fill="#0B9ED9"/>
<path d="M12.2435 0C12.3344 0.0530413 12.4178 0.121237 12.4859 0.197011C12.5845 0.295516 12.6451 0.416753 12.6905 0.545568C12.7284 0.644073 12.7284 0.742579 12.7284 0.848661C12.7284 0.886548 12.7284 0.924435 12.7284 0.962321C12.7284 4.22815 12.7284 7.4864 12.7284 10.7522C12.7284 10.828 12.7284 10.8962 12.7208 10.972C12.7057 11.2372 12.5845 11.4569 12.3799 11.6236C12.2662 11.7221 12.1374 11.7828 11.9934 11.8131C11.9252 11.8282 11.8495 11.8282 11.7737 11.8282C11.6524 11.8282 11.5312 11.8131 11.41 11.76C11.2887 11.707 11.1826 11.6312 11.0993 11.5403C11.0084 11.4418 10.9402 11.3281 10.8871 11.2069C10.8796 11.1235 10.8341 11.0478 10.8417 10.9568C10.8492 10.8962 10.8417 10.8356 10.8417 10.775C10.8417 7.50914 10.8417 4.23573 10.8417 0.969899C10.8417 0.916857 10.8417 0.863816 10.8417 0.810775C10.8417 0.750156 10.8492 0.689537 10.872 0.621341C10.8947 0.545568 10.9174 0.477372 10.9553 0.409176C11.0159 0.280361 11.1069 0.174279 11.2281 0.0985053C11.266 0.068196 11.3039 0.045464 11.3418 0.022732C11.6449 0 11.948 0 12.2435 0Z" fill="#0B9ED9"/>
<path d="M0.400024 6.8803C0.430334 6.87272 0.453066 6.85756 0.453066 6.82725C0.46822 6.69844 0.528839 6.58478 0.604612 6.47112C0.69554 6.34231 0.8092 6.23622 0.95317 6.16803C1.05168 6.12256 1.15776 6.0771 1.27142 6.0771C1.33204 6.0771 1.39265 6.06952 1.45327 6.0771C1.72606 6.09225 1.93822 6.21349 2.1125 6.42566C2.1807 6.50901 2.23374 6.59993 2.26405 6.70602C2.28678 6.78937 2.30951 6.86514 2.30951 6.95607C2.30951 7.65318 2.30951 8.34272 2.30951 9.03984C2.30951 9.10045 2.29436 9.16107 2.2792 9.21411C2.26405 9.28989 2.23374 9.36566 2.19585 9.43386C2.08977 9.63087 1.93065 9.77484 1.71848 9.85819C1.56693 9.91881 1.41539 9.93396 1.25626 9.92638H1.24869C1.12745 9.89607 1.01379 9.86576 0.907706 9.80515C0.763736 9.7218 0.657654 9.60814 0.574303 9.46417C0.521262 9.38082 0.483375 9.28989 0.46822 9.19138C0.460643 9.1535 0.453066 9.13076 0.407602 9.13076C0.400024 8.38061 0.400024 7.63045 0.400024 6.8803Z" fill="#0B9ED9"/>
<path d="M44 9.13056C43.9924 9.14571 43.9773 9.16087 43.9773 9.1836C43.9242 9.46396 43.7575 9.66097 43.5302 9.81252C43.4469 9.84283 43.3711 9.88071 43.2877 9.90344C43.2044 9.92618 43.1286 9.92618 43.0453 9.93375C42.9771 9.93375 42.9165 9.9186 42.8483 9.90344C42.7573 9.88071 42.674 9.84283 42.5906 9.79736C42.4391 9.70643 42.3254 9.5852 42.2421 9.43365C42.2118 9.37303 42.189 9.30484 42.1663 9.24422C42.136 9.15329 42.136 9.05478 42.136 8.96386C42.136 8.3122 42.136 7.66055 42.136 7.0089C42.136 6.72096 42.2572 6.48607 42.4694 6.30421C42.5679 6.22086 42.6816 6.16024 42.8104 6.12236C42.9543 6.07689 43.0983 6.08447 43.2423 6.09962C43.3787 6.11478 43.4999 6.1754 43.6136 6.25117C43.75 6.34968 43.856 6.47849 43.9242 6.63761C43.947 6.69066 43.9697 6.75127 43.9773 6.81189C43.9849 6.8422 43.9924 6.86493 44 6.89524C44 7.63024 44 8.3804 44 9.13056Z" fill="#0B9ED9"/>
<path d="M14.6529 22.6942C14.5696 22.7094 12.9102 22.7094 12.7889 22.7018C12.7813 22.6866 12.7738 22.6639 12.7662 22.6488C12.7586 22.6184 12.7662 22.5881 12.7662 22.5654C12.7662 20.1482 12.7662 17.7235 12.7662 15.3063C12.7662 15.2609 12.7586 15.2154 12.7889 15.1699C12.8116 15.1699 12.842 15.1624 12.8723 15.1624C13.433 15.1624 14.0013 15.1624 14.562 15.1624C14.5923 15.1624 14.6151 15.1699 14.6529 15.1699C14.6529 15.1927 14.6605 15.2078 14.6605 15.2305C14.6605 15.2533 14.6605 15.276 14.6605 15.2987C14.6605 17.7235 14.6605 20.1482 14.6605 22.573C14.6529 22.6109 14.6529 22.6488 14.6529 22.6942Z" fill="#0B9ED9"/>
<path d="M7.52274 6.69817C7.52274 7.41802 7.52274 8.13786 7.52274 8.85771C7.52274 8.97137 7.51516 9.07745 7.50001 9.19111C7.49243 9.27446 7.45455 9.35024 7.40908 9.42601C7.32573 9.58513 7.20449 9.70637 7.05295 9.7973C6.97717 9.84276 6.89382 9.87307 6.81047 9.8958C6.7347 9.91096 6.65893 9.92611 6.58315 9.92611C6.50738 9.92611 6.43161 9.93369 6.35583 9.8958C6.21944 9.88065 6.10578 9.81245 5.9997 9.7291C5.87846 9.63817 5.77996 9.51694 5.71934 9.37297C5.6966 9.31235 5.67387 9.25931 5.65114 9.19869C5.64356 9.18353 5.64356 9.1608 5.64356 9.14565C5.64356 9.06987 5.63599 8.9941 5.63599 8.91833C5.63599 7.43317 5.63599 5.94801 5.63599 4.47043C5.63599 4.43255 5.63599 4.40224 5.63599 4.36435C5.63599 4.1143 5.74207 3.90971 5.91635 3.73543C6.03001 3.62177 6.17398 3.546 6.3331 3.50811C6.53011 3.46265 6.71955 3.47023 6.90898 3.546C7.14388 3.63693 7.303 3.80363 7.41666 4.02337C7.48486 4.15976 7.49243 4.30373 7.50001 4.4477C7.50001 4.48559 7.50001 4.5159 7.50001 4.55378C7.52274 5.25848 7.52274 5.97832 7.52274 6.69817Z" fill="#0B9ED9"/>
<path d="M38.7867 6.69077C38.7867 7.4182 38.7867 8.14562 38.7867 8.86547C38.7867 8.92609 38.7867 8.97913 38.7867 9.03975C38.7791 9.32768 38.6427 9.555 38.423 9.73686C38.3472 9.79748 38.2563 9.85052 38.1578 9.88083C38.082 9.90356 37.9987 9.93387 37.9153 9.92629C37.8699 9.92629 37.8168 9.92629 37.7714 9.92629C37.7486 9.92629 37.7335 9.92629 37.7107 9.91872C37.6122 9.88841 37.5137 9.86567 37.4228 9.82021C37.294 9.75201 37.1879 9.66109 37.097 9.53985C37.0212 9.44892 36.9833 9.33526 36.9378 9.22918C36.9378 9.2216 36.9303 9.21402 36.9303 9.19887C36.9227 9.07763 36.9075 8.96397 36.9075 8.85031C36.9075 7.56217 36.9075 6.2816 36.9075 4.99345C36.9075 4.87221 36.9075 4.7434 36.9075 4.62216C36.9 4.47819 36.9151 4.33422 36.9303 4.19025C36.9378 4.13721 36.9606 4.08417 36.9757 4.03871C37.0363 3.88716 37.1349 3.76592 37.2561 3.65984C37.3546 3.58407 37.4607 3.53102 37.5819 3.49314C37.7107 3.45525 37.8471 3.45525 37.9759 3.47041C38.0744 3.47798 38.2184 3.53102 38.3321 3.59922C38.4836 3.69015 38.5973 3.81896 38.6806 3.97809C38.7337 4.07659 38.7716 4.19025 38.7716 4.30391C38.7716 4.37211 38.7716 4.4403 38.7716 4.50092C38.7867 5.23592 38.7867 5.96335 38.7867 6.69077Z" fill="#0B9ED9"/>
<path d="M28.3528 6.69817C28.3528 7.42559 28.3528 8.15301 28.3528 8.87286C28.3528 8.93348 28.3528 8.9941 28.3528 9.05472C28.3604 9.31992 28.1558 9.62302 27.9815 9.73668C27.8982 9.78972 27.8148 9.84276 27.7239 9.87307C27.6481 9.8958 27.5723 9.92611 27.489 9.91853C27.4359 9.91853 27.3905 9.91853 27.3374 9.91853C27.3223 9.91853 27.3071 9.91853 27.292 9.91853C27.1935 9.88822 27.095 9.87307 26.9965 9.82003C26.8752 9.75941 26.7767 9.67606 26.6934 9.56998C26.6024 9.46389 26.5494 9.34266 26.5115 9.20626C26.5039 9.19111 26.5039 9.16838 26.5039 9.15322C26.4963 9.03956 26.4888 8.9259 26.4888 8.81224C26.4888 7.39528 26.4888 5.97074 26.4888 4.55378C26.4888 4.44012 26.4963 4.33404 26.5115 4.22038C26.5267 4.09914 26.5721 3.99306 26.6403 3.89455C26.7388 3.74301 26.8676 3.62177 27.0268 3.546C27.1253 3.50053 27.2313 3.46265 27.345 3.46265C27.3981 3.46265 27.4435 3.46265 27.4966 3.46265C27.6481 3.47022 27.7921 3.51569 27.9209 3.59904C28.0649 3.68997 28.1785 3.8112 28.2543 3.96275C28.2998 4.05368 28.3528 4.19007 28.3528 4.29615C28.3528 4.36435 28.3528 4.43254 28.3528 4.49316C28.3604 5.23574 28.3528 5.97074 28.3528 6.69817Z" fill="#0B9ED9"/>
<path d="M16.0775 6.69096C16.0775 5.96353 16.0775 5.23611 16.0775 4.50111C16.0775 4.44049 16.0775 4.38745 16.0775 4.32683C16.0851 4.08436 16.1836 3.88734 16.3503 3.72064C16.464 3.60698 16.6079 3.53121 16.7671 3.48575C16.9035 3.44786 17.0398 3.44786 17.1762 3.47059C17.3657 3.5009 17.5324 3.59183 17.6688 3.72822C17.79 3.84946 17.8734 3.99343 17.9112 4.15255C17.934 4.2359 17.934 4.32683 17.9415 4.41776C17.9415 4.45565 17.9415 4.48595 17.9415 4.52384C17.9415 5.96353 17.9415 7.41081 17.9415 8.8505C17.9415 8.96416 17.934 9.07782 17.9112 9.19148C17.8961 9.29756 17.8506 9.38849 17.7976 9.47942C17.6991 9.63854 17.5627 9.7522 17.4036 9.83555C17.3505 9.85828 17.2975 9.88859 17.2369 9.88859C17.1383 9.93406 17.0323 9.9189 16.9262 9.9189C16.8883 9.9189 16.858 9.91132 16.8201 9.90375C16.8049 9.90375 16.7974 9.89617 16.7822 9.88859C16.6686 9.87344 16.5701 9.8204 16.4715 9.7522C16.3124 9.64612 16.1988 9.50215 16.1306 9.32029C16.1003 9.24452 16.0775 9.16875 16.0775 9.09297C16.0775 9.0172 16.0699 8.949 16.0699 8.87323C16.0775 8.15338 16.0775 7.42596 16.0775 6.69096Z" fill="#0B9ED9"/>
<path d="M23.1547 8.00166C23.1547 8.3578 23.1547 8.70636 23.1547 9.06249C23.1547 9.12311 23.1623 9.17615 23.1244 9.22919C23.1016 9.36558 23.0259 9.47924 22.9425 9.5929C22.8516 9.71414 22.7304 9.78992 22.6015 9.85811C22.5409 9.88842 22.4727 9.896 22.4121 9.91873C22.397 9.92631 22.3742 9.92631 22.3591 9.92631C22.2606 9.92631 22.1696 9.92631 22.0711 9.92631C22.056 9.92631 22.0484 9.92631 22.0332 9.92631C21.8287 9.87327 21.6468 9.78234 21.5104 9.62321C21.4119 9.50955 21.3437 9.38832 21.3058 9.24435C21.2907 9.18373 21.2755 9.12311 21.2755 9.05491C21.2755 8.35022 21.2755 7.64553 21.2755 6.94841C21.2755 6.79687 21.3286 6.66048 21.4043 6.52408C21.4953 6.37254 21.6165 6.25888 21.768 6.17553C21.859 6.13006 21.9575 6.09975 22.0636 6.07702C22.1848 6.05429 22.306 6.06944 22.4273 6.0846C22.5334 6.09975 22.6243 6.14522 22.7152 6.19826C22.8668 6.29676 22.988 6.42558 23.0638 6.5847C23.0865 6.63774 23.1168 6.68321 23.1168 6.74383C23.1623 6.82718 23.1547 6.91811 23.1547 7.00146C23.1547 7.34244 23.1547 7.67584 23.1547 8.00166Z" fill="#0B9ED9"/>
</g>
<defs>
<clipPath id="clip0_535_102">
<rect width="43.6" height="22.732" fill="white" transform="translate(0.400024)"/>
</clipPath>
</defs>
</svg>
