<svg width="44" height="44" viewBox="0 0 44 44" fill="none" xmlns="http://www.w3.org/2000/svg">
<path fill-rule="evenodd" clip-rule="evenodd" d="M44 22C44 9.85068 34.1492 0 22 0C9.85068 0 0 9.85068 0 22C0 32.9798 8.04396 42.0817 18.5628 43.7342V28.3609H12.9754V22H18.5628V17.152C18.5628 11.6388 21.8484 8.5914 26.8727 8.5914C29.2796 8.5914 31.7979 9.0214 31.7979 9.0214V14.4356H29.0229C26.2911 14.4356 25.4372 16.131 25.4372 17.8728V21.9998H31.5379L30.5635 28.3607H25.437V43.7339C35.9559 42.0848 43.9997 32.9829 43.9997 21.9998L44 22Z" fill="#1977F3"/>
<path fill-rule="evenodd" clip-rule="evenodd" d="M30.5635 28.3607L31.5383 21.9998H25.4374V17.8727C25.4374 16.134 26.2881 14.4356 29.0231 14.4356H31.7983V9.02135C31.7983 9.02135 29.28 8.59131 26.8729 8.59131C21.8486 8.59131 18.5631 11.6357 18.5631 17.1519V21.9999H12.9756V28.3608H18.5631V43.7341C19.683 43.9101 20.8307 43.9999 22.0002 43.9999C23.1697 43.9999 24.3175 43.907 25.4374 43.7341V28.3608H30.5639L30.5635 28.3607Z" fill="#FEFEFE"/>
</svg>
