<svg width="44" height="43" viewBox="0 0 44 43" fill="none" xmlns="http://www.w3.org/2000/svg">
<path fill-rule="evenodd" clip-rule="evenodd" d="M21.9473 0C9.82776 0 0 9.86934 0 22.0443C0 31.7842 6.28858 40.0473 15.0089 42.9621C16.1058 43.166 16.5085 42.484 16.5085 41.9017C16.5085 41.3759 16.4881 39.6394 16.4787 37.7976C10.3729 39.1309 9.08451 35.1964 9.08451 35.1964C8.08616 32.6486 6.64766 31.9711 6.64766 31.9711C4.65639 30.6029 6.79776 30.6309 6.79776 30.6309C9.00166 30.7859 10.1621 32.9031 10.1621 32.9031C12.1196 36.2726 15.2964 35.2982 16.5488 34.735C16.7458 33.3104 17.3146 32.3375 17.9422 31.7874C13.0674 31.2299 7.94295 29.3397 7.94295 20.893C7.94295 18.4862 8.8003 16.5197 10.2043 14.976C9.97641 14.4204 9.22517 12.1786 10.4169 9.14219C10.4169 9.14219 12.2599 8.54971 16.4539 11.4018C18.2046 10.9134 20.0822 10.6684 21.9473 10.66C23.8125 10.6684 25.6915 10.9134 27.4454 11.4018C31.6345 8.54971 33.4748 9.14219 33.4748 9.14219C34.6696 12.1786 33.9181 14.4204 33.69 14.976C35.0971 16.5197 35.9489 18.4862 35.9489 20.893C35.9489 29.3598 30.8146 31.224 25.9274 31.7698C26.7146 32.454 27.416 33.7956 27.416 35.8521C27.416 38.8018 27.3906 41.1755 27.3906 41.9017C27.3906 42.4882 27.7856 43.1756 28.8981 42.9591C37.6138 40.0411 43.8942 31.7809 43.8942 22.0443C43.8942 9.86934 34.0679 0 21.9473 0Z" fill="#1B1817"/>
<path d="M8.31253 31.6508C8.26419 31.7607 8.09264 31.7932 7.93636 31.718C7.77718 31.6463 7.68776 31.497 7.73937 31.3871C7.78661 31.2746 7.95853 31.2432 8.11735 31.3182C8.27691 31.3904 8.36776 31.5412 8.31253 31.6508Z" fill="#1B1817"/>
<path d="M9.20152 32.6465C9.09687 32.7442 8.89224 32.6988 8.7534 32.5447C8.60987 32.3912 8.58296 32.1855 8.6891 32.0866C8.79702 31.9896 8.99546 32.0353 9.13938 32.1884C9.28295 32.344 9.31092 32.548 9.20152 32.6465Z" fill="#1B1817"/>
<path d="M10.0668 33.9163C9.93238 34.0101 9.7125 33.9223 9.57657 33.7261C9.44208 33.5302 9.44211 33.2949 9.57949 33.2008C9.71577 33.1068 9.93238 33.1916 10.0701 33.386C10.2042 33.5851 10.2042 33.8204 10.0668 33.9163Z" fill="#1B1817"/>
<path d="M11.2524 35.1429C11.1321 35.276 10.8759 35.2402 10.6883 35.0583C10.4964 34.8807 10.443 34.6283 10.5637 34.4952C10.6854 34.3617 10.9431 34.3993 11.1321 34.5794C11.3225 34.7571 11.3807 35.0109 11.2524 35.1429Z" fill="#1B1817"/>
<path d="M12.8878 35.8551C12.8347 36.0277 12.5879 36.1063 12.3393 36.0328C12.0911 35.9573 11.9286 35.7551 11.9788 35.5804C12.0304 35.4066 12.2783 35.3251 12.5287 35.4033C12.7766 35.4786 12.9394 35.6796 12.8878 35.8551Z" fill="#1B1817"/>
<path d="M14.684 35.987C14.6901 36.1689 14.4793 36.3197 14.2184 36.323C13.956 36.3286 13.7437 36.1817 13.7408 36.0028C13.7408 35.8192 13.9469 35.6699 14.2093 35.6654C14.4703 35.6603 14.684 35.8064 14.684 35.987Z" fill="#1B1817"/>
<path d="M16.3554 35.7012C16.3867 35.8786 16.2053 36.0608 15.9462 36.1094C15.6914 36.156 15.4556 36.0467 15.4232 35.8705C15.3916 35.6887 15.5762 35.5065 15.8306 35.4597C16.0901 35.4143 16.3224 35.5209 16.3554 35.7012Z" fill="#1B1817"/>
</svg>
