<svg width="464" height="341" viewBox="0 0 464 341" fill="none" xmlns="http://www.w3.org/2000/svg">
<g clip-path="url(#clip0_121_55)">
<path d="M449.878 340.244H450.634C450.319 331.671 449.437 323.099 447.924 314.653C444.582 296.563 439.034 284.65 431.406 279.355L430.965 279.986C448.743 292.403 449.878 339.739 449.878 340.244Z" fill="#006B5E"/>
<path d="M440.232 340.055H440.989C440.989 339.172 440.484 319.065 432.541 313.455L432.1 314.086C439.728 319.443 440.232 339.866 440.232 340.055Z" fill="#006B5E"/>
<path d="M426.615 279.986C428.739 279.986 430.461 278.264 430.461 276.141C430.461 274.017 428.739 272.296 426.615 272.296C424.491 272.296 422.77 274.017 422.77 276.141C422.77 278.264 424.491 279.986 426.615 279.986Z" fill="#006B5E"/>
<path d="M428.507 313.203C430.631 313.203 432.352 311.482 432.352 309.358C432.352 307.235 430.631 305.513 428.507 305.513C426.383 305.513 424.661 307.235 424.661 309.358C424.661 311.482 426.383 313.203 428.507 313.203Z" fill="#006B5E"/>
<path d="M442.061 282.318C441.683 285.28 442.061 288.306 443.196 291.079C447.293 286.478 448.302 279.923 445.843 274.313C443.889 276.645 442.565 279.355 442.061 282.318Z" fill="#006B5E"/>
<path d="M429.452 293.6C432.289 294.483 435.378 294.609 438.278 293.979C434.496 289.125 428.191 286.982 422.202 288.495C424.093 290.764 426.615 292.529 429.452 293.6Z" fill="#006B5E"/>
<path d="M429.263 322.973C431.28 323.603 433.424 323.666 435.441 323.225C432.793 319.821 428.38 318.309 424.156 319.38C425.543 321.019 427.308 322.28 429.263 322.973Z" fill="#006B5E"/>
<path d="M177.782 340.244H176.647C177.089 327.763 178.413 315.346 180.619 303.118C185.474 276.834 193.543 259.626 204.576 251.811L205.206 252.756C179.421 270.846 177.782 339.55 177.782 340.244Z" fill="#006B5E"/>
<path d="M191.841 339.991H190.706C190.706 338.731 191.4 309.484 202.936 301.416L203.567 302.362C192.534 310.052 191.841 339.676 191.841 339.991Z" fill="#006B5E"/>
<path d="M211.637 252.819C214.736 252.819 217.248 250.307 217.248 247.209C217.248 244.111 214.736 241.599 211.637 241.599C208.538 241.599 206.026 244.111 206.026 247.209C206.026 250.307 208.538 252.819 211.637 252.819Z" fill="#006B5E"/>
<path d="M208.863 301.038C211.962 301.038 214.474 298.527 214.474 295.428C214.474 292.33 211.962 289.819 208.863 289.819C205.764 289.819 203.252 292.33 203.252 295.428C203.252 298.527 205.764 301.038 208.863 301.038Z" fill="#006B5E"/>
<path d="M189.194 256.16C189.761 260.509 189.194 264.858 187.491 268.892C181.502 262.211 180.052 252.693 183.646 244.562C186.483 247.903 188.437 251.874 189.194 256.16Z" fill="#006B5E"/>
<path d="M207.539 272.548C203.378 273.871 198.965 274.061 194.678 273.115C200.226 266.119 209.304 262.967 218.004 265.11C215.23 268.451 211.573 270.972 207.539 272.548Z" fill="#006B5E"/>
<path d="M207.728 315.22C204.828 316.166 201.739 316.292 198.713 315.598C202.559 310.682 208.989 308.476 215.041 309.988C213.15 312.321 210.565 314.149 207.728 315.22Z" fill="#006B5E"/>
<path d="M91.2235 101.607L88.5127 85.0924L80.8844 83.2015C80.8844 83.2015 74.8322 81.3105 73.4453 93.5386C72.0583 105.704 73.1301 128.458 73.1301 128.458L56.4235 181.404C52.704 183.169 51.1909 187.581 52.8931 191.237C54.6583 194.956 59.0714 196.469 62.7279 194.767C66.0692 193.191 67.7083 189.346 66.5735 185.817L88.3235 136.085L91.2235 101.607Z" fill="#FFEAD7"/>
<path d="M137.498 88.6223L133.526 72.4232L139.768 67.6959C139.768 67.6959 144.622 63.5988 150.674 74.2511C156.726 84.9035 164.67 106.208 164.67 106.208L200.857 148.313C204.955 148.502 208.107 151.906 207.918 156.003C207.729 160.1 204.324 163.252 200.226 163.062C196.507 162.936 193.481 160.037 193.165 156.318L153.637 119.13L137.498 88.6223Z" fill="#FFEAD7"/>
<path d="M168.768 331.608H177.846L182.133 296.626H168.768V331.608Z" fill="#FFEAD7"/>
<path d="M166.435 328.646H184.276C190.58 328.646 195.687 333.751 195.687 340.054V340.433H166.435V328.646Z" fill="#006B5E"/>
<path d="M54.8477 331.608H63.9259L68.2129 296.626H54.8477V331.608Z" fill="#FFEAD7"/>
<path d="M52.5156 328.646H70.3569C76.6613 328.646 81.7678 333.751 81.7678 340.054V340.433H52.5156V328.646Z" fill="#006B5E"/>
<path d="M110.452 57.5477C123.996 57.5477 134.976 46.5701 134.976 33.0285C134.976 19.4869 123.996 8.50928 110.452 8.50928C96.9075 8.50928 85.9277 19.4869 85.9277 33.0285C85.9277 46.5701 96.9075 57.5477 110.452 57.5477Z" fill="#00362F"/>
<path d="M91.3185 19.8438C95.2823 15.8807 96.0806 10.2536 93.1016 7.27517C90.1226 4.29675 84.4944 5.09492 80.5306 9.05795C76.5668 13.021 75.7685 18.6481 78.7475 21.6266C81.7265 24.605 87.3547 23.8068 91.3185 19.8438Z" fill="#00362F"/>
<path d="M136.05 12.0319C137.705 8.15844 134.867 3.23367 129.712 1.03218C124.557 -1.16932 119.037 0.186123 117.382 4.05963C115.727 7.93314 118.565 12.8579 123.72 15.0594C128.875 17.2609 134.395 15.9055 136.05 12.0319Z" fill="#00362F"/>
<path d="M111.272 59.6908C122.762 59.6908 132.076 50.3782 132.076 38.8905C132.076 27.4027 122.762 18.0901 111.272 18.0901C99.7822 18.0901 90.4678 27.4027 90.4678 38.8905C90.4678 50.3782 99.7822 59.6908 111.272 59.6908Z" fill="#FFE8D1"/>
<path d="M89.3955 25.8429C94.1238 29.1205 99.7977 30.8854 105.598 30.8223C103.517 32.2721 101.185 33.2175 98.7259 33.6588C106.417 35.2976 114.361 35.3606 122.052 33.7848C123.754 33.5327 125.393 32.9654 126.906 32.083C128.419 31.2005 129.554 29.7508 129.932 28.049C130.437 25.1495 128.167 22.5022 125.772 20.6743C118.459 15.1905 109.002 13.3626 100.176 15.5687C97.339 16.3251 94.439 17.5857 92.6107 19.8549C90.7825 22.124 90.2151 25.7168 91.9803 28.049L89.3955 25.8429Z" fill="#00362F"/>
<path d="M100.807 65.9939L80.1914 82.8233L98.2218 125.748L98.537 132.618C98.537 132.618 79.8761 149.826 68.2761 197.982C56.6761 246.138 33.4131 309.989 33.4131 309.989L80.1283 321.397L112.596 212.542L154.015 297.95L159.878 323.225L196.002 313.203L182.07 245.444L147.9 140.245L150.737 111.187C150.737 111.187 156.978 96.6902 146.135 81.3105L142.73 66.8763L125.078 63.8508L100.807 65.9939Z" fill="#006B5E"/>
<path d="M390.491 218.656H247.445C245.05 218.656 243.158 216.702 243.158 214.37V166.151C243.158 163.756 245.113 161.865 247.445 161.865H390.491C392.887 161.865 394.778 163.819 394.778 166.151V214.37C394.778 216.765 392.887 218.656 390.491 218.656Z" fill="#FFEAD7"/>
<path d="M360.167 174.723H322.278V179.009H360.167V174.723Z" fill="white"/>
<path d="M353.422 179.892C354.849 179.892 356.007 178.735 356.007 177.307C356.007 175.88 354.849 174.723 353.422 174.723C351.994 174.723 350.837 175.88 350.837 177.307C350.837 178.735 351.994 179.892 353.422 179.892Z" fill="#006B5E"/>
<path d="M362.058 179.892C363.486 179.892 364.643 178.735 364.643 177.307C364.643 175.88 363.486 174.723 362.058 174.723C360.631 174.723 359.474 175.88 359.474 177.307C359.474 178.735 360.631 179.892 362.058 179.892Z" fill="#006B5E"/>
<path d="M370.695 179.892C372.123 179.892 373.28 178.735 373.28 177.307C373.28 175.88 372.123 174.723 370.695 174.723C369.268 174.723 368.11 175.88 368.11 177.307C368.11 178.735 369.268 179.892 370.695 179.892Z" fill="#006B5E"/>
<path d="M390.491 279.859H247.445C245.05 279.859 243.158 277.905 243.158 275.573V227.354C243.158 224.959 245.113 223.068 247.445 223.068H390.491C392.887 223.068 394.778 225.022 394.778 227.354V275.573C394.778 277.905 392.887 279.859 390.491 279.859Z" fill="#FFEAD7"/>
<path d="M360.167 235.927H322.278V240.213H360.167V235.927Z" fill="white"/>
<path d="M353.422 241.095C354.849 241.095 356.007 239.938 356.007 238.511C356.007 237.084 354.849 235.927 353.422 235.927C351.994 235.927 350.837 237.084 350.837 238.511C350.837 239.938 351.994 241.095 353.422 241.095Z" fill="#006B5E"/>
<path d="M362.058 241.095C363.486 241.095 364.643 239.938 364.643 238.511C364.643 237.084 363.486 235.927 362.058 235.927C360.631 235.927 359.474 237.084 359.474 238.511C359.474 239.938 360.631 241.095 362.058 241.095Z" fill="#006B5E"/>
<path d="M370.695 241.095C372.123 241.095 373.28 239.938 373.28 238.511C373.28 237.084 372.123 235.927 370.695 235.927C369.268 235.927 368.11 237.084 368.11 238.511C368.11 239.938 369.268 241.095 370.695 241.095Z" fill="#006B5E"/>
<path d="M390.491 341H247.445C245.05 341 243.158 339.046 243.158 336.714V288.495C243.158 286.099 245.113 284.208 247.445 284.208H390.491C392.887 284.208 394.778 286.162 394.778 288.495V336.714C394.778 339.046 392.887 341 390.491 341Z" fill="#FFEAD7"/>
<path d="M360.167 297.067H322.278V301.353H360.167V297.067Z" fill="white"/>
<path d="M353.422 302.236C354.849 302.236 356.007 301.079 356.007 299.651C356.007 298.224 354.849 297.067 353.422 297.067C351.994 297.067 350.837 298.224 350.837 299.651C350.837 301.079 351.994 302.236 353.422 302.236Z" fill="#006B5E"/>
<path d="M362.058 302.236C363.486 302.236 364.643 301.079 364.643 299.651C364.643 298.224 363.486 297.067 362.058 297.067C360.631 297.067 359.474 298.224 359.474 299.651C359.474 301.079 360.631 302.236 362.058 302.236Z" fill="#006B5E"/>
<path d="M370.695 302.236C372.123 302.236 373.28 301.079 373.28 299.651C373.28 298.224 372.123 297.067 370.695 297.067C369.268 297.067 368.11 298.224 368.11 299.651C368.11 301.079 369.268 302.236 370.695 302.236Z" fill="#006B5E"/>
<path d="M261.126 230.695C258.415 230.695 255.705 230.317 253.057 229.623L252.552 229.497L252.048 229.245C234.648 220.484 219.896 208.949 208.359 194.956C198.776 183.295 191.337 169.996 186.294 155.751C180.305 138.669 177.405 120.705 177.783 102.615C177.783 102.237 177.783 101.922 177.783 101.733C177.783 92.9713 182.637 85.2184 190.202 82.0669C196.002 79.6717 248.455 58.1149 252.237 56.5391C259.361 52.9463 266.989 55.9718 268.187 56.4761C270.898 57.6107 319.441 77.4025 329.907 82.4451C340.687 87.6136 343.587 96.8162 343.587 101.481C343.587 122.533 339.931 142.199 332.744 159.911C326.944 174.282 318.685 187.518 308.409 199.116C288.55 221.429 268.691 229.371 268.502 229.434C266.107 230.317 263.648 230.695 261.126 230.695ZM256.461 219.097C258.163 219.475 262.135 220.043 264.72 219.097C267.998 217.9 284.641 209.264 300.15 191.805C321.585 167.664 332.491 137.282 332.491 101.544C332.428 100.85 331.924 95.6817 325.115 92.404C314.839 87.4876 264.405 66.8763 263.9 66.6872L263.774 66.6242C262.702 66.1829 259.361 65.2375 257.028 66.4351L256.587 66.6242C256.02 66.8763 200.352 89.6937 194.426 92.2149C190.265 93.9168 188.815 98.2029 188.815 101.67C188.815 101.922 188.815 102.3 188.815 102.741C188.311 127.323 193.922 187.455 256.461 219.097Z" fill="#3F3D56"/>
<path d="M254.507 61.6447C254.507 61.6447 198.335 84.7142 192.283 87.2355C186.231 89.7567 183.268 95.7447 183.268 101.796C183.268 107.847 178.729 186.384 254.507 224.329C254.507 224.329 261.379 226.22 266.611 224.329C271.844 222.438 338.04 190.355 338.04 101.544C338.04 101.544 338.04 92.5301 327.511 87.4876C316.983 82.4451 266.044 61.6447 266.044 61.6447C266.044 61.6447 259.803 58.8713 254.507 61.6447Z" fill="#E0EDEB"/>
<path opacity="0.45" d="M260.496 79.7346V202.835C260.496 202.835 317.172 175.542 316.668 103.813L260.496 79.7346Z" fill="#006B5E"/>
<path d="M463.433 341H0.567391C0.252174 341 0 340.748 0 340.37C0 339.991 0.252174 339.739 0.567391 339.739H463.433C463.748 339.739 464 339.991 464 340.37C464 340.748 463.748 341 463.433 341Z" fill="#CBCBCB"/>
</g>
<defs>
<clipPath id="clip0_121_55">
<rect width="464" height="341" fill="white"/>
</clipPath>
</defs>
</svg>
