<svg width="26" height="25" viewBox="0 0 26 25" fill="none" xmlns="http://www.w3.org/2000/svg">
<path d="M25.4156 11.7576C25.1942 7.23882 22.4631 3.01636 18.4034 1.09032C13.9746 -0.90979 8.5863 -0.0949291 4.89566 3.01636C1.35264 5.97949 -0.27124 10.7946 0.762139 15.3133C1.72171 19.758 5.19091 23.3879 9.54587 24.5731C14.7866 26.0547 19.5844 23.536 22.5369 19.2395C19.8797 22.7952 15.82 25.1658 11.3174 24.3509C6.81479 23.536 3.12415 20.1284 2.09077 15.6837C0.983578 10.9427 3.19796 5.97949 7.40529 3.5349C11.7603 1.01624 17.8867 1.97926 20.7654 6.2758C21.5035 7.31289 22.0202 8.57222 22.2417 9.83155C22.4631 10.8686 22.3893 11.9798 22.5369 13.0169C22.6845 13.9799 23.4965 15.2393 24.6037 14.5726C25.5632 13.9799 25.4894 12.7206 25.4156 11.7576C25.4156 11.4613 25.4894 12.2761 25.4156 11.7576V11.7576Z" fill="#FF7700"/>
</svg>
