<svg width="44" height="30" viewBox="0 0 44 30" fill="none" xmlns="http://www.w3.org/2000/svg">
<path d="M22.9748 29.9606L13.9477 29.7979C11.0249 29.7412 8.09488 29.8543 5.22942 29.267C0.870382 28.3891 0.561573 24.0856 0.238436 20.4755C-0.206813 15.4003 -0.0344437 10.233 0.8058 5.20022C1.28014 2.37629 3.14689 0.691218 6.03372 0.507849C15.7789 -0.157616 25.589 -0.0787515 35.3126 0.231712C36.3396 0.260172 37.3736 0.415731 38.3862 0.592797C43.3845 1.4564 43.5065 6.33345 43.8305 10.439C44.1537 14.5869 44.0172 18.7561 43.3996 22.8758C42.9041 26.2868 41.9561 29.1472 37.9552 29.4233C32.9423 29.7845 28.0446 30.0752 23.0177 29.9827C23.0179 29.9606 22.9892 29.9606 22.9748 29.9606ZM17.6677 21.325C21.4454 19.1872 25.1508 17.085 28.9068 14.9615C25.1221 12.8236 21.4236 10.7214 17.6677 8.59794V21.325Z" fill="#FF0000"/>
</svg>
