<svg width="45" height="14" viewBox="0 0 45 14" fill="none" xmlns="http://www.w3.org/2000/svg">
<g clip-path="url(#clip0_537_147)">
<path d="M10.8108 8.63297V12.8107C10.8108 12.9816 10.8108 12.9827 10.6398 12.9827H8.16075C7.99234 12.9827 7.99213 12.9827 7.99213 12.8092V6.81512C7.99213 6.77601 8.00132 6.73283 7.98785 6.69885C7.97439 6.66487 7.93998 6.64158 7.91134 6.61722C7.90301 6.60995 7.88377 6.61486 7.86967 6.61486C7.03982 6.61486 6.20996 6.61615 5.38011 6.61294C5.26834 6.61294 5.25188 6.66616 5.25188 6.75827C5.25373 7.52379 5.25409 8.28946 5.25295 9.05527C5.25295 10.3091 5.25295 11.5629 5.25295 12.8166C5.25295 12.9827 5.25295 12.9829 5.08711 12.9831H2.57767C2.41482 12.9831 2.41461 12.9831 2.41461 12.8145V6.79887C2.41461 6.61486 2.41461 6.61465 2.23316 6.61465C1.79861 6.61465 1.36406 6.61465 0.929503 6.61465C0.796573 6.61465 0.791231 6.60909 0.791231 6.47531C0.791231 5.78437 0.792512 5.09343 0.789307 4.40228C0.789307 4.30034 0.821577 4.26571 0.92416 4.26657C1.37296 4.27084 1.82176 4.26871 2.27056 4.26807C2.40691 4.26807 2.41375 4.26059 2.41439 4.12167C2.41632 3.71561 2.39302 3.30956 2.47851 2.90841C2.72941 1.71952 3.46159 0.974297 4.60433 0.609913C5.04949 0.467793 5.50898 0.422272 5.97402 0.421631C6.59721 0.421631 7.22048 0.421631 7.84381 0.421631C7.98315 0.421631 7.98764 0.426119 7.98764 0.565888C7.98764 1.25319 7.98764 1.94057 7.98764 2.62802C7.98764 2.76202 7.9823 2.76736 7.84937 2.76758C7.31508 2.76758 6.78079 2.76052 6.24651 2.77078C5.92059 2.77698 5.63144 2.88661 5.42969 3.16231C5.30018 3.33905 5.26342 3.5455 5.25487 3.75793C5.24996 3.88231 5.25808 4.00733 5.25274 4.13172C5.24825 4.23152 5.28287 4.27362 5.38716 4.26999C5.56519 4.26379 5.74342 4.26828 5.92145 4.26828H10.6332C10.8102 4.26828 10.8104 4.26828 10.8104 4.44481L10.8108 8.63297Z" fill="#3E3F43"/>
<path d="M31.4538 5.54649C31.619 5.28084 31.7731 5.02396 31.9906 4.80597C32.2755 4.52066 32.6198 4.36678 33.01 4.31442C33.2357 4.28493 33.463 4.27016 33.6905 4.27018C34.7518 4.26591 35.8133 4.26826 36.8749 4.26847C37.0332 4.26847 37.0339 4.26847 37.0339 4.43068C37.0339 4.76194 37.0339 5.0932 37.0339 5.42446C37.0339 5.46464 37.0399 5.50481 37.0431 5.54478L37.0693 5.54948C37.1223 5.4548 37.1747 5.3597 37.2288 5.26545C37.5974 4.62196 38.1595 4.30673 38.8945 4.28814C39.2364 4.27937 39.5784 4.27702 39.919 4.26677C40.0178 4.26377 40.0487 4.3016 40.0472 4.39777C40.0445 5.0922 40.0445 5.7867 40.0472 6.48127C40.0472 6.58429 40.0113 6.61698 39.9103 6.61592C39.4758 6.61207 39.0411 6.62211 38.6066 6.61271C37.7759 6.59454 37.2732 7.0754 37.1198 7.83088C37.0656 8.09925 37.0375 8.37222 37.0358 8.64599C37.0277 10.0351 37.0322 11.4243 37.0319 12.8134C37.0319 12.9816 37.0319 12.9818 36.8685 12.982H34.3252C34.1722 12.982 34.1714 12.982 34.1714 12.8262V6.80997C34.1714 6.61335 34.1714 6.61335 33.9703 6.61335C33.6283 6.61335 33.2864 6.61335 32.9444 6.61335C32.2526 6.61506 31.7446 7.00787 31.5632 7.67936C31.4891 7.95098 31.4518 8.23131 31.4523 8.51285C31.4556 9.94815 31.4561 11.3835 31.4538 12.8188C31.4538 12.981 31.4538 12.9814 31.2961 12.9814H28.7424C28.5973 12.9814 28.5928 12.9776 28.5928 12.8305C28.5928 10.0276 28.5928 7.22465 28.5928 4.42171C28.5928 4.26997 28.5956 4.26741 28.7492 4.26741H31.3033C31.4514 4.26741 31.4529 4.26954 31.4529 4.41701C31.4529 4.75525 31.4529 5.09356 31.4529 5.43194L31.4538 5.54649Z" fill="#3E3F43"/>
<path d="M24.9441 9.3054H22.1017C21.9504 9.3054 21.9485 9.3054 21.9812 9.455C22.09 9.95253 22.3208 10.3684 22.7837 10.6204C23.135 10.8117 23.5169 10.8645 23.9108 10.8392C24.1792 10.8221 24.4385 10.7657 24.6791 10.636C24.9198 10.5063 25.098 10.3291 25.1976 10.0771C25.2305 9.99442 25.2745 9.98245 25.3532 10.0049C25.9456 10.1737 26.5384 10.341 27.1317 10.5067C27.3063 10.5558 27.4807 10.6067 27.6564 10.6527C27.7444 10.6755 27.7598 10.7134 27.7205 10.7976C27.2937 11.7014 26.607 12.3325 25.6964 12.7272C25.0003 13.0281 24.269 13.1399 23.5165 13.1085C22.6617 13.0728 21.856 12.8563 21.1398 12.3718C20.2535 11.7721 19.693 10.9358 19.3972 9.91556C19.258 9.44329 19.1964 8.95154 19.2149 8.45952C19.2416 7.79872 19.3818 7.16335 19.6562 6.55747C19.862 6.10204 20.1334 5.68914 20.4856 5.33694C20.8934 4.92551 21.3894 4.61215 21.9361 4.42054C22.6377 4.17498 23.3588 4.11941 24.0946 4.17669C24.6396 4.21943 25.1643 4.34039 25.6609 4.56864C26.1428 4.78634 26.5722 5.10523 26.9199 5.50364C27.5098 6.18154 27.8412 6.97656 27.9359 7.85984C27.984 8.30971 27.949 8.76855 27.9453 9.22334C27.9453 9.25091 27.8942 9.28745 27.8598 9.30241C27.8301 9.31566 27.7897 9.30583 27.753 9.30583L24.9441 9.3054ZM23.5593 7.62091C24.0363 7.62091 24.5136 7.62091 24.9911 7.62091C25.023 7.62091 25.0553 7.62091 25.0871 7.62091C25.1444 7.62091 25.1726 7.59612 25.1625 7.53414C25.0713 6.97485 24.8016 6.54336 24.2743 6.29909C23.9884 6.16658 23.6826 6.14671 23.3748 6.16808C22.9089 6.20014 22.5074 6.36213 22.2456 6.77524C22.1088 6.99109 22.0261 7.22938 21.975 7.47922C21.9479 7.61215 21.9536 7.62155 22.0861 7.62176C22.5777 7.62148 23.0687 7.62119 23.5593 7.62091Z" fill="#3E3F43"/>
<path d="M11.01 4.267H11.1523C12.0072 4.267 12.8621 4.26914 13.7169 4.26465C13.8298 4.26465 13.8806 4.30119 13.9133 4.40848C14.2246 5.43032 14.5388 6.45123 14.8558 7.47122C15.0396 8.06663 15.2241 8.66189 15.4093 9.25702C15.4196 9.28103 15.4314 9.30437 15.4446 9.3269C15.466 9.2724 15.4811 9.2397 15.4916 9.20551C15.7814 8.24793 16.0709 7.29013 16.3601 6.33212C16.5548 5.68799 16.7521 5.04449 16.9421 4.39886C16.972 4.29756 17.0184 4.26486 17.1214 4.26508C17.9869 4.2685 18.8525 4.267 19.718 4.26721C19.8516 4.26721 19.8554 4.27341 19.8099 4.39929C19.24 5.97294 18.6705 7.54652 18.1013 9.12002C17.6664 10.3222 17.2351 11.5254 16.7961 12.726C16.6875 13.0233 16.7679 12.9799 16.4347 12.9808C15.7365 12.9827 15.0383 12.9791 14.3403 12.9838C14.2335 12.9838 14.1824 12.9479 14.1463 12.8485C13.6577 11.5032 13.167 10.1586 12.6742 8.81463C12.1847 7.4772 11.6943 6.13999 11.2032 4.80299C11.1412 4.63352 11.0807 4.4634 11.01 4.267Z" fill="#3E3F43"/>
<path d="M42.5991 12.9814C43.9251 12.9814 45 11.9065 45 10.5806C45 9.25459 43.9251 8.17969 42.5991 8.17969C41.2731 8.17969 40.1982 9.25459 40.1982 10.5806C40.1982 11.9065 41.2731 12.9814 42.5991 12.9814Z" fill="#1CB96F"/>
</g>
<defs>
<clipPath id="clip0_537_147">
<rect width="44.2107" height="12.6933" fill="white" transform="translate(0.789307 0.419922)"/>
</clipPath>
</defs>
</svg>
