<svg width="44" height="45" viewBox="0 0 44 45" fill="none" xmlns="http://www.w3.org/2000/svg">
<path d="M43.7385 22.8238C43.7385 21.3073 43.6155 19.7825 43.353 18.2905H22.3098V26.8817H34.3603C33.8602 29.6525 32.2536 32.1036 29.9008 33.661V39.2354H37.0902C41.312 35.3497 43.7385 29.6115 43.7385 22.8238Z" fill="#4285F4"/>
<path d="M22.3098 44.6212C28.3269 44.6212 33.4013 42.6456 37.0982 39.2352L29.909 33.6609C27.9088 35.0218 25.3265 35.7924 22.318 35.7924C16.4977 35.7924 11.5627 31.8656 9.79204 26.5864H2.37317V32.3328C6.16049 39.8667 13.8745 44.6212 22.3098 44.6212Z" fill="#34A853"/>
<path d="M9.78387 26.5863C8.84933 23.8155 8.84933 20.8152 9.78387 18.0444V12.2979H2.37322C-0.791072 18.6018 -0.791072 26.0289 2.37322 32.3327L9.78387 26.5863Z" fill="#FBBC04"/>
<path d="M22.3098 8.83035C25.4905 8.78118 28.5646 9.97801 30.8681 12.175L37.2377 5.80541C33.2045 2.01812 27.8514 -0.0640775 22.3098 0.00150343C13.8744 0.00150343 6.16049 4.75614 2.37317 12.298L9.78383 18.0445C11.5463 12.757 16.4895 8.83035 22.3098 8.83035Z" fill="#EA4335"/>
</svg>
