<svg width="44" height="44" viewBox="0 0 44 44" fill="none" xmlns="http://www.w3.org/2000/svg">
<path d="M22.0193 10.7902C21.6323 10.7902 21.2496 10.8099 20.8726 10.8486C20.4955 10.8872 20.1237 10.9444 19.7582 11.0195C19.3926 11.0946 19.0336 11.1877 18.6818 11.2975L17.6491 11.6767L16.6659 12.1514L15.7381 12.716L14.8713 13.3644L14.0713 14.091L13.344 14.8903L12.6948 15.7562L12.1296 16.6831L11.6546 17.6652C11.5118 18.0011 11.3848 18.3455 11.2748 18.697C11.1649 19.0485 11.0719 19.4074 10.9966 19.7725C10.9213 20.1376 10.8641 20.509 10.8253 20.8858C10.7866 21.2626 10.7671 21.6449 10.7671 22.0314C10.7671 22.4179 10.7868 22.8001 10.8253 23.1769C10.8636 23.5507 10.9207 23.9224 10.9966 24.2904C11.0719 24.6569 11.1649 25.0143 11.2748 25.3659C11.3848 25.7174 11.5116 26.0617 11.6546 26.3977L12.1296 27.3798L12.6948 28.3066L13.344 29.1726L14.0713 29.9719L14.8713 30.6986L15.7381 31.347L16.6659 31.9114L17.6491 32.3862L18.6818 32.7654L19.7582 33.0434C20.1265 33.1192 20.4985 33.1764 20.8726 33.2145C21.2536 33.2534 21.6363 33.2729 22.0193 33.2726C22.4062 33.2726 22.7889 33.253 23.1658 33.2145C23.54 33.1764 23.9119 33.1192 24.2803 33.0434L25.3568 32.7654L26.3894 32.3862L27.3725 31.9114L28.3004 31.347L29.1673 30.6986L29.9674 29.9719L30.6948 29.1726L31.3438 28.3066L31.9091 27.3798L32.3843 26.3977L32.7638 25.3659C32.8738 25.0143 32.967 24.6554 33.0421 24.2904L33.2132 23.1768C33.252 22.8 33.2716 22.4177 33.2716 22.0312C33.2716 21.6447 33.252 21.2624 33.2132 20.8857C33.175 20.5119 33.1179 20.1403 33.0421 19.7724C32.967 19.4059 32.8738 19.0485 32.7638 18.6968L32.3843 17.665L31.9091 16.683L31.3438 15.756L30.6948 14.8901L29.9674 14.0909L29.1673 13.3642L28.3004 12.7158L27.3725 12.1513L26.3894 11.6765L25.3568 11.2974L24.2803 11.0194L23.1658 10.8484C22.7849 10.8095 22.4022 10.79 22.0193 10.79V10.7902ZM22.0193 14.6702C22.2751 14.6702 22.5276 14.6829 22.7762 14.708L23.5092 14.8189L24.2172 14.9993L24.8952 15.2456L25.5398 15.5543L26.146 15.9215L26.7126 16.344L27.235 16.8179L27.7094 17.3397L28.1322 17.9058L28.4999 18.5127L28.8086 19.1569C28.9013 19.3774 28.9836 19.6034 29.0552 19.8344C29.1268 20.0654 29.187 20.3015 29.2357 20.542C29.2843 20.7825 29.3202 21.0272 29.3466 21.2757L29.3844 22.0321C29.3844 22.2876 29.3717 22.5399 29.3466 22.7886C29.3215 23.0373 29.2846 23.2819 29.2357 23.5223C29.1867 23.7626 29.1264 23.9987 29.0552 24.2299L28.8086 24.9073L28.4999 25.5515L28.1322 26.1584L27.7094 26.7246L27.235 27.2464L26.7126 27.7203L26.146 28.1428L25.5398 28.51L24.8952 28.8187L24.2172 29.0649L23.5092 29.2454L22.7762 29.3561C22.5247 29.3814 22.272 29.394 22.0191 29.3939C21.7662 29.394 21.5135 29.3814 21.2619 29.3561L20.5289 29.2454C20.2883 29.1966 20.052 29.1363 19.8207 29.0649L19.1427 28.8187L18.4981 28.51L17.892 28.1428L17.3254 27.7203L16.8029 27.2464L16.3286 26.7246L15.9057 26.1584L15.5381 25.5515L15.2294 24.9073L14.9827 24.2299L14.8023 23.5223L14.6914 22.7886C14.6662 22.5372 14.6535 22.2847 14.6536 22.0321C14.6535 21.7795 14.6662 21.527 14.6914 21.2757C14.7163 21.0272 14.7534 20.7823 14.8023 20.542C14.8507 20.3033 14.911 20.0672 14.9829 19.8345L15.2296 19.1571L15.5383 18.5129L15.9059 17.9059L16.3288 17.3398L16.8031 16.818L17.3255 16.3441L17.8921 15.9217L18.4983 15.5544L19.1429 15.2457C19.3647 15.1526 19.5911 15.0704 19.821 14.9995L20.5292 14.8191C20.7698 14.7703 21.0148 14.7331 21.2622 14.7081C21.5138 14.6829 21.7665 14.6703 22.0194 14.6704L22.0193 14.6702Z" fill="url(#paint0_radial_407_80)"/>
<path d="M33.7279 7.59229C33.6387 7.59229 33.5494 7.59681 33.4605 7.60582C33.3716 7.6148 33.2833 7.62825 33.1956 7.64612C33.1082 7.664 33.0214 7.68624 32.9362 7.7128C32.8506 7.73938 32.7669 7.77024 32.6844 7.80526C32.6022 7.84034 32.5218 7.87954 32.4433 7.92268C32.3648 7.96577 32.2887 8.01276 32.2151 8.06351C32.1411 8.1143 32.0699 8.16878 32.0018 8.22674C31.9334 8.28464 31.868 8.34594 31.8056 8.41041C31.7436 8.47491 31.6846 8.54253 31.629 8.61296C31.5734 8.68342 31.5215 8.7566 31.4732 8.83229C31.4249 8.90792 31.3806 8.98592 31.34 9.06601C31.2996 9.14616 31.263 9.22829 31.2306 9.31214C31.1982 9.39592 31.1701 9.48132 31.1459 9.56795C31.1221 9.6546 31.1025 9.74239 31.0876 9.831C31.0723 9.91958 31.0616 10.0089 31.0552 10.0985C31.0506 10.162 31.0485 10.2257 31.0485 10.2894C31.0485 10.3793 31.0527 10.4692 31.0619 10.5588C31.0708 10.6482 31.0842 10.7372 31.1019 10.8253C31.1197 10.9134 31.1417 11.0006 31.1679 11.0865C31.1945 11.1724 31.2251 11.257 31.2599 11.3398C31.2947 11.4227 31.3335 11.5037 31.3766 11.5827C31.4194 11.6616 31.4662 11.7383 31.5166 11.8126C31.567 11.8868 31.6211 11.9584 31.6785 12.0271C31.7363 12.0959 31.7971 12.1618 31.8612 12.2245C31.9254 12.2871 31.9923 12.3465 32.0626 12.4024C32.1326 12.4583 32.2053 12.5106 32.2805 12.5592C32.3556 12.6079 32.4332 12.6527 32.5127 12.6934C32.5924 12.7343 32.674 12.7711 32.7571 12.8037C32.8405 12.8363 32.9252 12.8646 33.0113 12.8887C33.0975 12.9127 33.1846 12.9324 33.2726 12.9476C33.3606 12.9629 33.4495 12.9738 33.5384 12.9801C33.6017 12.9847 33.6649 12.9869 33.7282 12.9869C33.8174 12.9869 33.9069 12.9825 33.9958 12.9735C34.0845 12.9645 34.1731 12.9511 34.2605 12.9332C34.3482 12.9154 34.4346 12.8931 34.5202 12.8665C34.6054 12.84 34.6895 12.8091 34.7717 12.7741C34.8538 12.739 34.9345 12.6999 35.0127 12.6568C35.0913 12.6137 35.1673 12.5666 35.2413 12.5158C35.3149 12.4651 35.3861 12.4107 35.4546 12.3527C35.5227 12.2948 35.5881 12.2335 35.6504 12.1689C35.7128 12.1044 35.7717 12.0368 35.827 11.9664C35.8827 11.8959 35.9346 11.8227 35.9829 11.747C36.0312 11.6714 36.0758 11.5933 36.1161 11.5132C36.1567 11.433 36.1934 11.3509 36.2258 11.2671C36.2582 11.1833 36.2863 11.0979 36.3101 11.0112C36.334 10.9246 36.3535 10.8368 36.3688 10.7482C36.3841 10.6596 36.3948 10.5703 36.4009 10.4807C36.4055 10.4171 36.4079 10.3535 36.4079 10.2898C36.4079 10.1999 36.4033 10.11 36.3945 10.0206C36.3856 9.9311 36.3721 9.84215 36.3544 9.75403C36.3367 9.66591 36.3144 9.57873 36.2881 9.49284C36.2615 9.40692 36.231 9.32237 36.1961 9.23954C36.1613 9.15667 36.1225 9.0756 36.0797 8.99665C36.037 8.91772 35.9902 8.841 35.9398 8.76675C35.8891 8.6925 35.835 8.62088 35.7775 8.55207C35.7198 8.48329 35.659 8.41741 35.5951 8.35474C35.531 8.2921 35.4637 8.23273 35.3938 8.17684C35.3238 8.12096 35.2511 8.06865 35.1759 8.02009C35.1007 7.97148 35.0231 7.92669 34.9434 7.88589C34.8636 7.84507 34.782 7.80828 34.6989 7.77568C34.6158 7.74308 34.5309 7.71472 34.4447 7.69067C34.3588 7.6666 34.2715 7.64689 34.1835 7.63161C34.0955 7.61636 34.0068 7.60552 33.9176 7.59919C33.8544 7.59467 33.7911 7.59244 33.7279 7.59244V7.59229Z" fill="url(#paint1_radial_407_80)"/>
<path d="M19.8856 0.0397166C18.6618 0.037743 17.5696 0.0428171 16.5885 0.0566309L13.9583 0.12711C13.179 0.16094 12.4906 0.205057 11.8726 0.262146C11.5637 0.290619 11.2722 0.322476 10.9959 0.357575C10.7329 0.390712 10.4708 0.429298 10.2095 0.473304C9.96065 0.515593 9.72454 0.561261 9.49816 0.610877C9.2718 0.660496 9.05556 0.71406 8.84693 0.771572C8.643 0.82781 8.44063 0.889669 8.24012 0.957075C8.04362 1.02333 7.85192 1.09352 7.66259 1.16851C7.28398 1.3185 6.91468 1.48679 6.53436 1.6754C6.24173 1.82059 5.97137 1.9676 5.71455 2.12322C5.45773 2.27884 5.21442 2.4432 4.97621 2.62222C4.73088 2.80748 4.49441 3.00419 4.26763 3.21172C4.03052 3.42766 3.78836 3.66517 3.53674 3.9306C3.22058 4.26228 2.94584 4.57154 2.70198 4.87501C2.58005 5.02669 2.46588 5.17669 2.35833 5.32751C2.25196 5.47613 2.15028 5.62809 2.05343 5.78306C1.95758 5.93673 1.8668 6.0932 1.77997 6.25417C1.69179 6.41792 1.60844 6.58423 1.53005 6.75287C1.36964 7.09738 1.21994 7.46839 1.07053 7.88254C0.959679 8.18867 0.860419 8.49893 0.77296 8.81256C0.683735 9.13311 0.604376 9.46846 0.533612 9.83113C0.462852 10.1938 0.401111 10.5839 0.346842 11.0152C0.288362 11.488 0.241643 11.9622 0.20673 12.4373C0.167261 12.9597 0.134559 13.5346 0.107777 14.1744L0.0443455 16.3017L0.0102333 18.8949L0.000366211 22.0294L0.0292628 26.5876L0.119476 30.0411L0.188969 31.39L0.2758 32.508C0.303634 32.8093 0.33846 33.1096 0.380251 33.4094C0.418308 33.6755 0.459188 33.9084 0.503167 34.11C0.592404 34.5198 0.697925 34.9259 0.819478 35.3274C0.935864 35.7117 1.06896 36.0906 1.21839 36.4634C1.36527 36.8285 1.52596 37.1805 1.70075 37.5194C1.87554 37.8583 2.06442 38.184 2.26741 38.4969C2.47039 38.8095 2.68746 39.1095 2.9192 39.3967C3.15067 39.684 3.39688 39.9587 3.65685 40.2205C3.91718 40.4827 4.19179 40.732 4.48118 40.9691C4.77396 41.209 5.07836 41.4345 5.39317 41.6444C5.68537 41.8397 5.97449 42.0187 6.26572 42.1828C6.55691 42.3472 6.85067 42.496 7.15262 42.6317C7.45454 42.767 7.7641 42.8889 8.08747 42.9986C8.41081 43.1083 8.74771 43.2058 9.10378 43.2923C9.45984 43.379 9.83674 43.4548 10.2357 43.5211C10.6346 43.5874 11.061 43.6443 11.5166 43.6932C11.9721 43.742 12.4582 43.7824 12.9804 43.8163C13.5027 43.8502 14.0609 43.8771 14.6606 43.8988C15.5872 43.9324 16.9897 43.952 18.6071 43.9596L23.843 43.9489L28.8011 43.8795L30.6863 43.8264L31.9144 43.7634C32.178 43.7417 32.4359 43.7164 32.685 43.6867C32.934 43.6571 33.1794 43.6232 33.4186 43.5844C33.6575 43.5459 33.8913 43.5028 34.1208 43.4548C34.3478 43.4075 34.5736 43.3546 34.7979 43.2965C35.02 43.24 35.2391 43.1759 35.456 43.1077C35.6727 43.0399 35.8875 42.9662 36.1008 42.8871C36.3153 42.8077 36.5276 42.723 36.7382 42.6335C36.9499 42.543 37.1614 42.4468 37.3737 42.3444C37.6997 42.1874 37.9622 42.0563 38.1926 41.9286C38.4095 41.8097 38.6182 41.6768 38.8178 41.5304C39.0145 41.3856 39.2101 41.2206 39.4356 41.0128C39.6611 40.805 39.9169 40.5548 40.2331 40.2382C40.5115 39.9602 40.7458 39.7185 40.9481 39.4988C41.1504 39.2791 41.3209 39.0814 41.4703 38.8907C41.6127 38.7099 41.7453 38.5216 41.8678 38.3267C41.9873 38.1363 42.0973 37.9386 42.2091 37.7195C42.3778 37.3899 42.5278 37.0843 42.662 36.7894C42.7924 36.5056 42.9116 36.2162 43.0192 35.9229C43.1252 35.6317 43.2172 35.3356 43.2945 35.0355C43.3739 34.7269 43.4424 34.4009 43.5016 34.0434C43.5606 33.6859 43.6107 33.2969 43.6541 32.8624C43.6975 32.4282 43.7345 31.9479 43.7669 31.4086L43.853 29.5976L43.9267 27.3455L43.9795 24.8365L43.9997 22.213L43.9526 17.0602L43.8897 14.7523L43.8038 12.7707L43.6966 11.2258C43.6578 10.7959 43.6156 10.4573 43.5713 10.2283C43.5218 9.97541 43.4668 9.72366 43.406 9.47323C43.3467 9.22958 43.2816 8.9874 43.2107 8.74689C43.1417 8.51256 43.0665 8.28003 42.9855 8.04955C42.9055 7.82192 42.8205 7.59904 42.7316 7.381C42.643 7.16292 42.5468 6.94995 42.4469 6.74147C42.3466 6.53299 42.2418 6.32958 42.1318 6.13082C42.0215 5.93208 41.9069 5.73827 41.7869 5.54922C41.6671 5.36021 41.5421 5.17596 41.4119 4.99666C41.2827 4.81794 41.1476 4.64331 41.0074 4.473C40.8677 4.30366 40.7229 4.13875 40.5729 3.97851C40.4232 3.81853 40.2682 3.6633 40.1087 3.51309C39.9489 3.36282 39.7845 3.21735 39.615 3.07667C39.4445 2.93553 39.27 2.79972 39.0909 2.66944C38.9104 2.53783 38.7258 2.41176 38.5373 2.29139C38.3463 2.16931 38.152 2.05293 37.954 1.94238C37.7529 1.82998 37.5482 1.72337 37.341 1.62268C36.9967 1.45536 36.6783 1.30694 36.366 1.17528C36.0586 1.04462 35.7454 0.928573 35.4273 0.827534C35.1074 0.726747 34.7744 0.640342 34.408 0.565774C34.0413 0.491206 33.6417 0.429044 33.1894 0.376183C32.7372 0.323325 32.2321 0.280615 31.6543 0.245094C31.0768 0.209572 30.427 0.18166 29.6852 0.159107L27.164 0.102724L23.9731 0.0650881L19.887 0.0399962L19.8856 0.0397166ZM22.0077 3.91636L27.9002 3.94992L30.1231 3.99275C30.7352 4.00996 31.2024 4.03012 31.4762 4.05338C31.8331 4.08341 32.1725 4.12103 32.4977 4.16616C32.8093 4.20921 33.1198 4.26274 33.4278 4.3267C33.7239 4.38872 34.0062 4.45918 34.2766 4.53869C34.5467 4.6182 34.8049 4.7073 35.0524 4.80581C35.3002 4.90435 35.537 5.01273 35.765 5.13144C35.9911 5.24923 36.2108 5.37885 36.4231 5.51977C36.6346 5.66002 36.8384 5.81115 37.0364 5.97395C37.2341 6.13675 37.426 6.31125 37.6133 6.49788C37.8113 6.69481 37.9937 6.89538 38.1617 7.1023C38.3292 7.30797 38.4844 7.52351 38.6259 7.74776C38.7692 7.97521 38.8981 8.21131 39.0124 8.45466C39.1291 8.70277 39.2339 8.96494 39.3281 9.2436C39.4225 9.5223 39.5062 9.81845 39.5804 10.1349C39.6584 10.4704 39.7234 10.8087 39.776 11.1491C39.8322 11.51 39.8805 11.8948 39.9214 12.3068C39.9621 12.7188 39.996 13.1582 40.0238 13.6283C40.0461 14.0054 40.0657 14.5029 40.0822 15.0906L40.1234 17.0943L40.1549 22.0025L40.1191 26.906L40.076 28.904L40.0165 30.3571C39.9755 31.0377 39.9321 31.6097 39.8802 32.1074C39.8542 32.3564 39.8258 32.5868 39.7946 32.8029C39.7653 33.007 39.7305 33.2102 39.6904 33.4124C39.6538 33.597 39.6113 33.7803 39.5627 33.9624C39.5166 34.1357 39.4643 34.3077 39.4066 34.4779C39.3482 34.6487 39.285 34.8177 39.2165 34.9845C39.1441 35.1611 39.0677 35.3356 38.9874 35.5085C38.9159 35.6629 38.8407 35.8132 38.7612 35.9592C38.6827 36.1041 38.599 36.2459 38.511 36.3849C38.4236 36.5227 38.3319 36.6565 38.236 36.7861C38.1407 36.915 38.0407 37.0406 37.9362 37.1625C37.8324 37.2841 37.7239 37.4015 37.6111 37.5151C37.4984 37.6285 37.3814 37.7379 37.26 37.8436C37.139 37.9493 37.0132 38.0511 36.883 38.1489C36.7531 38.2466 36.6184 38.3404 36.4794 38.4303C36.34 38.5204 36.1967 38.6066 36.0485 38.6891C35.9003 38.7713 35.7475 38.8498 35.5905 38.9247C35.4304 39.0007 35.2684 39.0719 35.104 39.1382C34.9345 39.2067 34.763 39.2702 34.5898 39.3292C34.2372 39.4493 33.8656 39.5547 33.4742 39.6455C33.0666 39.7399 32.655 39.8169 32.2407 39.8765C32.0812 39.8997 31.7151 39.9217 31.1908 39.9419L29.1926 39.9975L23.5275 40.0711L17.5979 40.0803L15.2693 40.0555L13.7572 40.0085L12.6423 39.9299C12.2961 39.9009 11.9741 39.8685 11.6725 39.8315C11.3708 39.7949 11.0899 39.7539 10.8256 39.7075C10.5751 39.6644 10.3262 39.6125 10.0792 39.5526C9.85401 39.4979 9.6311 39.434 9.41107 39.3613C9.19893 39.2907 8.99607 39.2131 8.79874 39.1279C8.60138 39.0426 8.40968 38.9491 8.2198 38.847C8.02993 38.745 7.84205 38.6344 7.65202 38.5134C7.50868 38.4223 7.37012 38.33 7.23677 38.2326C7.10343 38.1348 6.97457 38.0373 6.85055 37.9353C6.72649 37.8332 6.60739 37.7281 6.4925 37.6199C6.37837 37.5121 6.26819 37.4002 6.1621 37.2847C6.05638 37.1692 5.9553 37.0507 5.85832 36.9279C5.76097 36.8044 5.6682 36.6773 5.58023 36.5471C5.49092 36.4148 5.40643 36.2795 5.32693 36.1414C5.24657 36.0017 5.17018 35.8575 5.09758 35.7084C5.02375 35.5568 4.95488 35.4028 4.89108 35.2467C4.82624 35.0875 4.76477 34.9234 4.70698 34.7541C4.59139 34.415 4.48992 34.0541 4.40167 33.6694C4.31343 33.2847 4.23814 32.8759 4.17443 32.4402C4.11072 32.0047 4.05942 31.5427 4.01854 31.052C3.98838 30.6905 3.96442 30.1274 3.94609 29.4169L3.90774 26.8903L3.92183 20.4492L4.03278 14.2943L4.11735 12.1258L4.16527 11.409C4.18192 11.2176 4.19912 11.0758 4.21672 10.9906C4.27481 10.7106 4.33329 10.4499 4.39376 10.206C4.45026 9.97575 4.51311 9.74719 4.58223 9.52047C4.64792 9.30649 4.71713 9.10604 4.79113 8.91617C4.86248 8.73223 4.94202 8.55158 5.0295 8.37476C5.1149 8.20279 5.20669 8.03813 5.30633 7.87786C5.406 7.7176 5.51356 7.56213 5.63083 7.40749C5.7481 7.25285 5.87439 7.10019 6.01183 6.94543C6.14927 6.79066 6.29771 6.63434 6.45867 6.47322C6.64629 6.28454 6.84163 6.10372 7.04421 5.93123C7.23552 5.76849 7.43498 5.61562 7.64188 5.47326C7.84528 5.33228 8.05392 5.20685 8.27114 5.09153C8.48836 4.97625 8.71416 4.87205 8.95167 4.77834C9.18918 4.68459 9.4387 4.60072 9.70297 4.5246C9.98066 4.44672 10.2614 4.38026 10.5445 4.32541C10.8422 4.26708 11.1584 4.21618 11.496 4.17178C11.8336 4.12738 12.1927 4.08903 12.5767 4.05576C12.8445 4.03266 13.306 4.01207 13.9137 3.99474L16.1254 3.95105L22.0087 3.91508L22.0077 3.91636Z" fill="url(#paint2_radial_407_80)"/>
<defs>
<radialGradient id="paint0_radial_407_80" cx="0" cy="0" r="1" gradientUnits="userSpaceOnUse" gradientTransform="translate(7.01011 47.1613) rotate(-9.53101) scale(92.9922 56.4456)">
<stop stop-color="#FED576"/>
<stop offset="0.263" stop-color="#F47133"/>
<stop offset="0.609" stop-color="#BC3081"/>
<stop offset="1" stop-color="#4C63D2"/>
</radialGradient>
<radialGradient id="paint1_radial_407_80" cx="0" cy="0" r="1" gradientUnits="userSpaceOnUse" gradientTransform="translate(7.01031 47.1612) rotate(-9.53103) scale(92.9921 56.4456)">
<stop stop-color="#FED576"/>
<stop offset="0.263" stop-color="#F47133"/>
<stop offset="0.609" stop-color="#BC3081"/>
<stop offset="1" stop-color="#4C63D2"/>
</radialGradient>
<radialGradient id="paint2_radial_407_80" cx="0" cy="0" r="1" gradientUnits="userSpaceOnUse" gradientTransform="translate(7.01024 47.1612) rotate(-9.53101) scale(92.9922 56.4456)">
<stop stop-color="#FED576"/>
<stop offset="0.263" stop-color="#F47133"/>
<stop offset="0.609" stop-color="#BC3081"/>
<stop offset="1" stop-color="#4C63D2"/>
</radialGradient>
</defs>
</svg>
