<svg width="44" height="43" viewBox="0 0 44 43" fill="none" xmlns="http://www.w3.org/2000/svg">
<rect x="0.281006" width="43.6714" height="43" rx="21.5" fill="#F7F400"/>
<path d="M14.3316 14.5348V16.7588L13.9273 17.6686L12.9163 17.5675H11.7033L10.8945 18.5784L11.1978 20.0948L12.9163 21.6111L13.624 22.8242L13.2196 24.1384L10.8945 26.4635L8.56942 27.8788V29.193L11.1978 30.7094L11.9054 31.7203L13.624 32.6301L16.5556 32.9334C20.5184 36.5726 26.0245 34.2475 28.2822 32.6301L31.9215 32.1246L32.2248 31.0126L34.4488 29.7995L36.0662 28.3843L31.315 24.6439L30.4051 22.0155L32.7302 20.398L32.9324 18.5784L32.2248 17.6686H29.8997C29.6975 16.3881 29.2931 13.5845 29.2931 12.614C29.2931 11.6435 27.3387 9.98565 26.3615 9.27801L21.0036 7.96383L17.6676 8.87365L14.8371 13.0184L14.3316 14.5348Z" fill="white"/>
<path d="M36.5677 28.0478C36.3657 27.4963 35.9791 27.2033 35.5412 26.9589C35.4587 26.9105 35.3821 26.8707 35.3194 26.8423C35.1886 26.774 35.0549 26.7087 34.9215 26.6404C33.5537 25.9154 32.4848 24.9999 31.7456 23.9166C31.4953 23.5499 31.3218 23.2201 31.1997 22.9499C31.137 22.768 31.1399 22.6656 31.1854 22.5718C31.2195 22.5007 31.3105 22.4268 31.3617 22.3898C31.5976 22.2335 31.8394 22.0771 32.0042 21.9719C32.2972 21.7814 32.5303 21.6307 32.6781 21.5284C33.2411 21.136 33.6334 20.7181 33.878 20.2518C34.2248 19.595 34.2674 18.8444 34.0001 18.1393C33.6305 17.1612 32.7037 16.5528 31.5835 16.5528C31.3503 16.5528 31.1144 16.5784 30.8813 16.6295C30.8186 16.6438 30.7589 16.658 30.6993 16.6722C30.7106 16.0069 30.6936 15.2961 30.6338 14.6023C30.4235 12.1572 29.5677 10.8749 28.6749 9.85422C28.3024 9.42774 27.6542 8.80508 26.6818 8.24781C25.3256 7.46878 23.7903 7.07642 22.1156 7.07642C20.4467 7.07642 18.9114 7.46878 17.5552 8.24497C16.5771 8.80223 15.9289 9.42774 15.5593 9.85137C14.6665 10.8721 13.8107 12.1544 13.6003 14.5995C13.5406 15.2932 13.5264 16.004 13.5349 16.6693C13.4752 16.6551 13.4126 16.6409 13.3529 16.6267C13.1198 16.5755 12.881 16.5499 12.6507 16.5499C11.5304 16.5499 10.6036 17.1584 10.2339 18.1364C9.9667 18.8415 10.0093 19.5921 10.3562 20.2489C10.6007 20.7152 10.9959 21.1332 11.556 21.5255C11.7067 21.6307 11.937 21.7814 12.2299 21.9691C12.3891 22.0714 12.6194 22.2221 12.8469 22.3728C12.881 22.3955 13.0032 22.4865 13.0459 22.5718C13.0942 22.6685 13.0942 22.7737 13.0231 22.967C12.9037 23.2314 12.7303 23.5555 12.4858 23.9138C11.7608 24.9743 10.723 25.8728 9.4009 26.5892C8.69863 26.9617 7.97078 27.209 7.66371 28.045C7.43057 28.6762 7.5841 29.3956 8.17264 30.0011C8.36598 30.2085 8.61049 30.3933 8.91756 30.564C9.63974 30.9621 10.2539 31.1582 10.7372 31.2918C10.8225 31.3175 11.0187 31.38 11.104 31.4568C11.3201 31.6444 11.2888 31.9287 11.5759 32.3438C11.7494 32.6026 11.9484 32.7789 12.1133 32.8925C12.7132 33.3078 13.3899 33.3333 14.1064 33.3618C14.7518 33.3873 15.4853 33.4158 16.3212 33.6915C16.6681 33.8052 17.0292 34.027 17.4443 34.2829C18.4451 34.9 19.8183 35.7415 22.1128 35.7415C24.4101 35.7415 25.7891 34.8941 26.7984 34.2773C27.2135 34.0241 27.5717 33.8023 27.9072 33.6915C28.7432 33.4158 29.4767 33.3873 30.1221 33.3618C30.8386 33.3333 31.5125 33.3078 32.1152 32.8925C32.3028 32.7619 32.5416 32.5486 32.7292 32.2245C32.934 31.8747 32.9312 31.6275 33.1245 31.4596C33.2041 31.3913 33.3776 31.3317 33.4714 31.3032C33.9575 31.1697 34.5802 30.9734 35.3165 30.5668C35.6435 30.3877 35.8966 30.1916 36.0984 29.9669L36.1071 29.9584C36.6558 29.3614 36.7951 28.6647 36.5677 28.0478ZM34.529 29.1424C33.2836 29.8305 32.4563 29.7565 31.8137 30.1689C31.2678 30.5213 31.5891 31.2805 31.194 31.5535C30.705 31.8917 29.2634 31.5306 27.4011 32.1448C25.8658 32.6537 24.8849 34.1123 22.1185 34.1123C19.3464 34.1123 18.3939 32.6594 16.8358 32.1448C14.9736 31.5306 13.5292 31.8917 13.043 31.5535C12.6478 31.2805 12.9691 30.5213 12.4232 30.1689C11.7806 29.7536 10.9533 29.8276 9.70797 29.1424C8.91471 28.7045 9.36394 28.4344 9.62835 28.3066C14.1376 26.1258 14.8541 22.7538 14.8883 22.5007C14.9281 22.1993 14.9707 21.9605 14.638 21.6506C14.3168 21.3521 12.8866 20.4679 12.4915 20.1921C11.8347 19.7343 11.5475 19.2766 11.7608 18.7136C11.9086 18.3241 12.2725 18.1791 12.6564 18.1791C12.7758 18.1791 12.898 18.1933 13.0146 18.2189C13.7339 18.3753 14.4333 18.7363 14.8371 18.833C14.894 18.8472 14.9423 18.8529 14.9849 18.8529C15.201 18.8529 15.2749 18.7449 15.2607 18.4975C15.2152 17.71 15.1015 16.1746 15.2266 14.7388C15.3972 12.7656 16.0341 11.7876 16.7903 10.9204C17.1543 10.5053 18.8602 8.70272 22.1213 8.70272C25.391 8.70272 27.0884 10.5053 27.4523 10.9204C28.2086 11.7847 28.8455 12.7628 29.0161 14.7388C29.1411 16.1746 29.0331 17.71 28.982 18.4975C28.965 18.7563 29.0444 18.8529 29.2577 18.8529C29.3004 18.8529 29.3516 18.8472 29.4055 18.833C29.8093 18.7363 30.5088 18.3753 31.228 18.2189C31.3447 18.1933 31.467 18.1791 31.5863 18.1791C31.9702 18.1791 32.3342 18.3269 32.4819 18.7136C32.6953 19.2766 32.4051 19.7343 31.7513 20.1921C31.356 20.4679 29.926 21.3521 29.6047 21.6506C29.2719 21.9577 29.3146 22.1965 29.3544 22.5007C29.3857 22.7538 30.1051 26.1258 34.6144 28.3066C34.8701 28.4344 35.3222 28.7045 34.529 29.1424Z" fill="black"/>
</svg>
