<svg width="23" height="45" viewBox="0 0 23 45" fill="none" xmlns="http://www.w3.org/2000/svg">
<g clip-path="url(#clip0_536_138)">
<path d="M0.00146763 26.6174C0.00146763 24.094 0.00146763 21.5706 0.00146763 19.0472C0.00146763 18.637 0.00146791 18.6365 0.418797 18.6365C2.11723 18.6365 3.81566 18.6365 5.5141 18.6365C5.91517 18.6365 5.92196 18.6032 5.92196 19.0545C5.92196 23.6646 5.92293 28.2746 5.92488 32.8846C5.92488 33.3199 5.93118 33.7605 5.99524 34.1895C6.30096 36.2422 7.39232 37.7113 9.36493 38.405C11.2657 39.0735 13.0503 38.7665 14.6252 37.4799C15.5152 36.752 16.0325 35.7865 16.2979 34.6774C16.4406 34.083 16.4617 33.4788 16.4612 32.8715C16.4598 30.2593 16.4594 27.647 16.46 25.0345C16.46 23.0287 16.46 21.0229 16.46 19.0172C16.46 18.636 16.46 18.635 16.8312 18.635C18.5538 18.635 20.2765 18.635 21.9993 18.635C22.3808 18.635 22.382 18.635 22.3822 19.0072C22.3822 23.9894 22.3946 28.9717 22.3747 33.9534C22.3689 35.4248 22.1039 36.8628 21.5395 38.2337C20.9014 39.7841 19.8872 41.0369 18.5365 42.0227C17.0581 43.1022 15.4046 43.7522 13.6025 44.0424C12.7067 44.1879 11.8046 44.2641 10.8998 44.2423C9.27419 44.2032 7.68227 43.9679 6.16241 43.355C4.65226 42.7462 3.3452 41.8463 2.273 40.6181C1.55893 39.8006 1.03145 38.8684 0.666526 37.8453C0.363022 36.9917 0.166209 36.1039 0.0805663 35.202C0.0320397 34.7027 -0.000716009 34.2043 1.18907e-05 33.7023C0.00405578 31.3408 0.00454099 28.9792 0.00146763 26.6174Z" fill="#050505"/>
<path d="M22.383 9.85114C22.383 10.8137 22.383 11.7762 22.383 12.7385C22.383 12.803 22.3844 12.8678 22.383 12.9326C22.3752 13.1628 22.3427 13.1832 22.1488 13.0692C21.466 12.6677 20.7838 12.2652 20.1022 11.8616C18.3891 10.8519 16.6761 9.84208 14.9632 8.83208C13.8495 8.17454 12.7364 7.5162 11.6239 6.85704C11.5404 6.80852 11.4506 6.76678 11.3735 6.70904C11.2444 6.61198 11.135 6.62873 10.9988 6.70904C9.82563 7.40879 8.64999 8.10434 7.47192 8.79568C5.55075 9.92975 3.62958 11.0635 1.70841 12.1969C1.2838 12.4476 0.859276 12.6984 0.434829 12.9491C0.365436 12.9901 0.296043 13.0321 0.224951 13.0704C0.0536518 13.1624 0.0150737 13.1415 0.00342734 12.9491C-0.000454796 12.8845 0.00172873 12.8198 0.00172873 12.755C0.00172873 10.8057 0.00172873 8.8565 0.00172873 6.90751C0.00172873 6.85098 0.00585349 6.7942 0.00172873 6.73767C-0.00846188 6.59039 0.0599609 6.50256 0.186858 6.42928C0.733026 6.11386 1.27361 5.78994 1.81663 5.46942C3.86251 4.26095 5.90872 3.05247 7.95525 1.844C8.95005 1.2561 9.94873 0.673532 10.9396 0.077867C11.126 -0.0342296 11.2694 -0.0250075 11.4492 0.0829643C12.5034 0.713811 13.563 1.33544 14.6214 1.95973C16.1742 2.87575 17.7271 3.79145 19.2799 4.70683C20.2405 5.27362 21.1979 5.84599 22.1624 6.40526C22.324 6.49916 22.3881 6.60616 22.3868 6.79081C22.3793 7.81302 22.383 8.83208 22.383 9.85114Z" fill="#BE32F5"/>
</g>
<defs>
<clipPath id="clip0_536_138">
<rect width="22.3868" height="44.2476" fill="white"/>
</clipPath>
</defs>
</svg>
